<?xml version="1.0" encoding="utf-8"?>
<!-- Generator: Adobe Illustrator 22.0.0, SVG Export Plug-In . SVG Version: 6.00 Build 0)  -->
<svg version="1.1" id="Layer_1" xmlns="http://www.w3.org/2000/svg" xmlns:xlink="http://www.w3.org/1999/xlink" x="0px" y="0px"
	 viewBox="0 0 612 792" style="enable-background:new 0 0 612 792;" xml:space="preserve">
<style type="text/css">
	.st0{fill:none;}
	.st1{fill:#FFFFFF;}
	.st2{clip-path:url(#SVGID_2_);}
</style>
<g>
	<path class="st0" d="M202,298.5c-17,10-32.8,20.2-47,30.2c1.2,1,2.1,2.2,2.7,3.7c14.2-9.9,29.8-20.1,46.7-30
		c40.3-23.5,92.3-48,151-61.7c-0.8-1.3-1.5-2.7-1.8-4.3C294.7,250.3,242.5,274.9,202,298.5z"/>
	<path class="st0" d="M428.7,228.5c0-1,0.2-1.9,0.5-2.9c-16.5,0.8-32.7,2.6-48.5,5.3c0.1,0.7,0.2,1.5,0.2,2.2c0,0.8-0.1,1.6-0.2,2.4
		c15.7-2.7,31.8-4.6,48.3-5.4C428.7,229.6,428.7,229.1,428.7,228.5z"/>
	<path class="st0" d="M392.5,171.6c-0.8,1.3-2,2.4-3.3,3.2c15.8,14.9,29.9,30.5,42.3,46.6c1.1-1.1,2.4-2,3.9-2.6
		C422.7,202.5,408.5,186.7,392.5,171.6z"/>
	<path class="st1" d="M394,165.4c18.7,0.3,38,1.8,58,4.7c-34.9-26.5-77.2-43.8-123.3-47.9c17.6,11.3,33.8,23.3,48.6,36
		c1.8-1.4,4-2.3,6.4-2.3C389.2,155.8,393.6,160,394,165.4z"/>
	<path class="st1" d="M318.9,121.5c-3.9-0.2-7.9-0.3-11.9-0.3c-15.9,0-31.5,1.6-46.6,4.6c20.5,13.2,39.9,28.3,57.8,45.2
		c17.6-2.8,36.1-4.6,55.3-5.3c0.1-1.4,0.4-2.7,0.9-3.8C357.7,147.5,339.2,134,318.9,121.5z"/>
	<path class="st1" d="M512.4,235.3c-1.9-0.4-3.9-0.7-5.8-1c-2.7,6.1-6.4,13.1-11,20.7c-6.3,10.3-10,21.6-15.9,36
		c15.9,35.1,25.3,71,28.8,106c4.6,1,8.1,5.1,8.1,10.1c0,4.4-2.8,8.2-6.8,9.7c1.1,31.6-2.6,62-10.8,89.9
		c30.8-40.4,49.1-90.8,49.1-145.4C548.1,315,535,271.9,512.4,235.3z"/>
	<path class="st1" d="M466.1,265.9c6.9-10.9,11.3-20.6,9.7-26.4c-0.6-2.4-0.3-5.4,0.7-8.6c-9.2-0.7-18.3-1.1-27.4-1.2
		c-0.2,1.9-1,3.7-2.2,5.1C454,245.1,460.3,255.4,466.1,265.9z"/>
	<path class="st1" d="M380.6,230.9c15.8-2.7,32-4.5,48.5-5.3c0.5-1.6,1.2-3,2.3-4.1c-12.4-16.1-26.5-31.7-42.3-46.6
		c-1.6,1-3.4,1.5-5.3,1.5c-4.2,0-7.9-2.6-9.5-6.2c-18,0.6-35.4,2.2-51.9,4.7c14.5,14,28,29.1,40.5,45.1c1.3-0.4,2.6-0.7,4.1-0.7
		C373.9,219.3,379.5,224.4,380.6,230.9z"/>
	<path class="st1" d="M435.3,218.9c1.1-0.4,2.4-0.7,3.7-0.7c4.5,0,8.3,2.9,9.7,7c9.7,0,19.5,0.5,29.4,1.3c3.4-8.3,8.9-16.6,8.9-17.8
		c0.1-1.6,2-2.6,3.6-1.8c-9.5-11.3-19.9-21.7-31.3-31c-22.8-3.8-44.8-5.6-66-5.9c-0.2,0.6-0.5,1.1-0.9,1.7
		C408.5,186.7,422.7,202.5,435.3,218.9z"/>
	<path class="st1" d="M508.6,229.3c-0.1,0.2-0.1,0.4-0.2,0.6c0.2,0,0.4,0.1,0.7,0.1C508.9,229.8,508.8,229.6,508.6,229.3z"/>
	<path class="st1" d="M496.4,223.8c1.6-2.1,3.1-4,4.4-5.5c-2.4-3.3-4.9-6.5-7.5-9.6c0.2,0.6,0.4,1.3,0.4,2.2
		C494.1,217.1,489.2,230.4,496.4,223.8z"/>
	<path class="st1" d="M109,371.3c-0.4-0.2-0.7-0.5-1-0.7c-2,1.7-4,3.3-5.9,4.9c1.3,0.2,2.6,0.5,4,0.7
		C109.5,376.6,113.7,374.3,109,371.3z"/>
	<path class="st1" d="M434.5,367.8c-11.7,15.3-26.2,32.5-44.8,52.1c-42.1,65.4-33.9,133.2-22.2,174.2c25.8-6.7,50-17.5,71.7-31.7
		l-0.5-0.2C456.8,512.8,456.4,441.3,434.5,367.8z"/>
	<path class="st1" d="M262,445.1c-67-7.4-125.5-55.8-125.5-55.8s-16.1,4.8-25.3,1.2c-6.7-2.6-12.3-5.8-16.3-8.8
		c-15.1,13.2-23.4,21.8-23.6,22l-0.5-0.5c17.9,100.8,98.7,180,200.2,195.6c2-15.3,5.9-49.6,7.5-101.3
		C278.4,497.5,266.5,445.6,262,445.1z"/>
	<path class="st1" d="M418.8,325.7c-11.4-27.7-25.9-55.2-43.7-81.4c-2.3,1.7-5.1,2.7-8.1,2.7c-4.8,0-9.1-2.5-11.5-6.3
		c-58.7,13.7-110.8,38.2-151,61.7c-16.9,9.9-32.5,20.1-46.7,30c0.5,1.2,0.8,2.6,0.8,4c0,5.7-4.6,10.3-10.3,10.3c-2.6,0-5-1-6.8-2.6
		c-10.4,7.7-19.9,15.1-28.2,21.9c2,0.9,3.8,1.6,4.2,1.7c9.4,1,17.5,5.7,17.5,5.7s64.1,28.7,142.6,22.8c0,0,7.5-1.9,18-5
		c1.6-5.4,0.3-9.3-1-12.5c-4.4-2-9.1-6.7-11.2-9.6c-8.6-11.9-16-40.7-4.9-56.3c0.5-0.8,20.1-12.3,38.9-5.8
		c18.6,6.5,14,33.3,11.1,52.4c-1.8,11.9-1.5,10.7-0.3,20.7C349.8,371.7,382.1,365.6,418.8,325.7z"/>
	<path class="st1" d="M504.2,417c-5.2-0.5-9.2-4.9-9.2-10.2c0-4.8,3.4-8.9,7.9-10c-3.3-33-12-66.8-26.5-99.9
		c-7.3,17-18.2,38.2-39,66.2c21.8,70.8,24.5,141.8,6.7,195c17.1-11.9,32.5-26,46-41.8C500.5,485.9,505.4,452.2,504.2,417z"/>
	<path class="st1" d="M428.8,230.2c-16.4,0.8-32.5,2.7-48.3,5.4c-0.4,2-1.1,3.9-2.3,5.5c17.2,25.1,32,52.1,44,80.8
		c1.5-1.7,3-3.5,4.5-5.3c8.7-10.5,25-29.3,36.4-46.3c-6-11-12.6-21.9-19.9-32.5c-1.3,0.6-2.8,1-4.4,1
		C433.9,238.8,429.7,235.1,428.8,230.2z"/>
	<path class="st1" d="M148.2,326.1c2.6,0,5,1,6.8,2.6c14.3-10,30-20.2,47-30.2c40.4-23.7,92.6-48.3,151.6-62.1
		c-0.3-1.1-0.4-2.1-0.4-3.3c0-4.6,2.3-8.6,5.7-11.1c-12.6-16.2-26.6-31.7-42-46.3c-53.4,8.8-98.4,26.3-132.4,43.5
		c-60.6,30.6-99.1,65.9-107.7,74.2c-6.3,21.5-9.7,44.2-9.7,67.7c0,12.7,1,25.1,2.9,37.2c3.3-3.2,10.6-10.3,21.3-19.7
		c-2.6-2.5-3.7-4.4-2.9-5.1c1.6-1.3-0.6-1,3.7-0.2c1.3,0.3,2.8,0.6,4.3,0.9c2.6-2.2,5.3-4.5,8.2-6.9c-3.9-4.9-2-9.1,3-4.5
		c0.3,0.3,0.8,0.6,1.3,0.9c8.8-7.2,18.8-15.1,30-23.4c-0.5-1.2-0.8-2.6-0.8-4C137.9,330.7,142.6,326.1,148.2,326.1z"/>
	<path class="st1" d="M313.2,171.4c-17.8-16.3-37.4-31.4-58.8-44.8c-82,18.6-148.3,79.2-174.8,157.9c15-13.6,50.9-43.3,102.9-69.6
		C216.3,197.9,260.7,180.5,313.2,171.4z"/>
	<g>
		<defs>
			<path id="SVGID_1_" d="M367,219.3c-1.4,0-2.8,0.3-4.1,0.7c-1.5,0.5-2.9,1.1-4.1,2c-3.4,2.5-5.7,6.5-5.7,11.1
				c0,1.1,0.2,2.2,0.4,3.3c0.4,1.5,1,3,1.8,4.3c2.5,3.8,6.7,6.3,11.5,6.3c3,0,5.8-1,8.1-2.7c1.2-0.9,2.3-2,3.2-3.2
				c1.1-1.6,1.9-3.5,2.3-5.5c0.1-0.8,0.2-1.6,0.2-2.4c0-0.8-0.1-1.5-0.2-2.2C379.5,224.4,373.9,219.3,367,219.3z"/>
		</defs>
		<clipPath id="SVGID_2_">
			<use xlink:href="#SVGID_1_"  style="overflow:visible;"/>
		</clipPath>
		<path class="st2" d="M155,328.7c-1.8-1.6-4.2-2.6-6.8-2.6c-5.7,0-10.3,4.6-10.3,10.3c0,1.4,0.3,2.8,0.8,4c0.6,1.4,1.5,2.7,2.7,3.7
			c1.8,1.6,4.2,2.6,6.8,2.6c5.7,0,10.3-4.6,10.3-10.3c0-1.4-0.3-2.8-0.8-4C157.1,331,156.2,329.7,155,328.7z"/>
		<path class="st2" d="M439,218.2c-1.3,0-2.5,0.3-3.7,0.7c-1.5,0.6-2.8,1.5-3.9,2.6c-1.1,1.2-1.9,2.6-2.3,4.1
			c-0.3,0.9-0.5,1.9-0.5,2.9c0,0.6,0.1,1.2,0.2,1.7c0.8,4.9,5,8.6,10.1,8.6c1.6,0,3-0.4,4.4-1c1.4-0.7,2.6-1.7,3.6-2.9
			c1.2-1.4,1.9-3.2,2.2-5.1c0.1-0.4,0.1-0.9,0.1-1.3c0-1.2-0.2-2.3-0.6-3.3C447.3,221.1,443.5,218.2,439,218.2z"/>
		<path class="st2" d="M507.5,396.8c-0.7-0.2-1.5-0.3-2.2-0.3c-0.8,0-1.6,0.1-2.4,0.3c-4.5,1.1-7.9,5.1-7.9,10
			c0,5.3,4.1,9.6,9.2,10.2c0.4,0,0.7,0.1,1.1,0.1c1.2,0,2.4-0.3,3.5-0.7c3.9-1.4,6.8-5.2,6.8-9.6
			C515.5,401.9,512.1,397.8,507.5,396.8z"/>
		<path class="st2" d="M383.8,155.8c-2.5,0-4.7,0.9-6.4,2.3c-1.2,1-2.2,2.2-2.9,3.6c-0.5,1.2-0.9,2.5-0.9,3.8c0,0.2,0,0.3,0,0.5
			c0,1.4,0.3,2.8,0.8,4.1c1.6,3.7,5.2,6.2,9.5,6.2c2,0,3.8-0.6,5.3-1.5c1.3-0.8,2.5-1.9,3.3-3.2c0.3-0.5,0.6-1.1,0.9-1.7
			c0.5-1.2,0.8-2.5,0.8-3.9c0-0.3-0.1-0.5-0.1-0.7C393.6,160,389.2,155.8,383.8,155.8z"/>
	</g>
</g>
<g>
	<path class="st1" d="M452,134c-41.4-26.7-90.8-41.3-141.8-41.3c-111.3,0-205.8,68.2-237.5,161.8c-5.1,15,1.2,0.2,1.2,0.2l0.1-0.2
		c39.7-87.1,131.2-143.3,233.2-143.3c50.2,0,103.4,17.4,144.8,43.1C452,154.4,448.3,144.9,452,134z"/>
	<path class="st1" d="M471.8,114.2c-44.6-33.7-102.4-52.1-164.2-52.1c-142.6,0-258.2,108.6-258.2,242.6c0,0,24.2-219.3,255.1-219.3
		c55.8,0,107.3,16.6,149.5,44.9C458,123.1,464.3,117.4,471.8,114.2z"/>
</g>
<g>
	<path class="st1" d="M455.7,146.8c0-16.5,13.4-29.9,29.9-29.9c16.5,0,29.9,13.4,29.9,29.9c0,16.5-13.4,30-29.9,30
		C469.1,176.8,455.7,163.3,455.7,146.8z"/>
</g>
<rect x="-11.5" y="16" class="st0" width="624.4" height="658.7"/>
<g>
	<g>
		<g>
			<path class="st1" d="M274.4,703.4v-40.5c0-6.6-4.3-7.2-11.4-7.2V654h30.6c21.7,0,44.7,3.2,44.7,29.3c0,26.1-24.2,29.1-44.7,29.1
				h-19.1L274.4,703.4z M286,701.6c0,6.4,1,7.4,7.6,7.4c22.5,0,31.8-8.1,31.8-25.7c0-16.1-6.9-25.9-31.8-25.9
				c-6.5,0-7.6,0.5-7.6,7.4V701.6z"/>
			<path class="st1" d="M136.1,662.9v29.2c0,12-2.6,21.1-29.8,21.1c-27.1,0-31.3-8.8-31.3-21.1v-29.2c0-6.6-4.2-7.2-11.4-7.2V654
				h22.7v1.8c0,0,0.3,0.6,0.3,7.2v29.2c0,8.9,3.1,17.7,20.1,17.7c18.8,0,21.8-7.3,21.8-17.7v-29.2c0-6.6-4.3-7.2-11.4-7.2V654h19
				L136.1,662.9z"/>
			<path class="st1" d="M186.4,709.3c-28.6,0-32.3-17.5-32.3-28.8c0-9,1.7-24,22.8-24c16.2,0,21.4,7.9,23.2,12.8h3.3l-1.2-13.8
				c-5.8-1.1-14.7-2.5-25.1-2.5c-28,0-35.8,11.9-35.8,28.2c0,18.7,12.6,32,38.7,32c7.6,0,13.7-0.5,19.1-1.5v-3.6
				C196,708.8,192.1,709.3,186.4,709.3z"/>
			<path class="st1" d="M246.2,680.9c-11.9-4.5-28.3-7-28.3-14.8c0-5.8,8.1-9.6,17.3-9.6c14.7,0,20.2,5.4,21.4,10.1h3.4l-1-12
				c-6.2-0.8-12.1-1.5-21.3-1.5c-17.3,0-30.9,4.3-30.9,14.8c0,5.6,2.9,8.8,8.9,11.8c12.8,6.2,35.6,9.1,35.6,18.6
				c0,6.1-7.8,11.1-19.9,11.1c-1.3,0-2.5,0-3.7-0.1c-3.6,0.1-11.8-0.7-18-1.6v4.3c4.9,0.5,13.2,1.3,20.6,1.3
				c18.8,0,33.9-5.3,33.9-16.4C264.3,688.5,257.1,684.9,246.2,680.9z"/>
		</g>
	</g>
	<g>
		<path class="st1" d="M434.6,709.6c-4.1,1.3-10.8,3.3-23.3,3.3c-26.3,0-35.8-11.5-35.8-31.2c0-15.9,6.8-28.9,33.8-28.9
			c10.8,0,18.7,1.3,24.3,2.6l0.7,14.6h-3.5c-0.5-4.5-7.2-13-20.2-13c-17.8,0-20.7,13.7-20.7,24.7c0,13.8,6.7,26.3,23.5,26.3
			c11.5,0,17.5-2.6,21.2-4.5V709.6z"/>
		<path class="st1" d="M487,668c-1-4.7-4.1-10.9-17-10.9c-9.8,0-15.3,3.6-15.3,8.1c0,8.6,20.6,12.6,29.7,17.7
			c5.9,3.3,10.2,7.2,10.2,13.1c0,12.3-13.2,16.9-31.6,16.9c-9.6,0-17.5-1.6-21.6-2.4l-0.7-14.4h3.5c1.5,4.5,4.2,12.6,20.1,12.6
			c10.6,0,16.5-4.1,16.5-9.5c0-8.6-14.2-11.7-25.3-16.9c-7.3-3.4-13.2-7.6-13.2-14.6c0-9.5,10.1-14.9,27.8-14.9
			c8.1,0,16.1,1.1,19.8,1.6l0.7,13.6H487z"/>
		<path class="st1" d="M494.9,709.8c8.5,0,10.3-1.3,10.3-8.1V664c0-6.8-1.8-8.1-10.3-8.1v-2.2H552l0.7,12.7h-3.5
			c-0.5-4.7-2.1-8.7-15.6-8.7h-7.8c-5.9,0-7.3,1.4-7.3,6.3v15.5h15.9c7.9,0,9.1-1.2,9.1-7h3.3v18.1h-3.3c0-5.2-1.2-7.1-9.1-7.1
			h-15.9v18.1c0,5.9,1,6.3,7.3,6.3h11.2c10.4,0,13.8-3.2,14.2-8.7h3.5l-0.7,12.7h-59.1V709.8z"/>
	</g>
</g>
<g>
	<path class="st1" d="M76.4,736.7c-0.4-4.6-1.9-6.6-4.3-6.6c-3.7,0-5.3,3.2-5.3,12.3c0,9.1,1.6,12.3,5.3,12.3c3,0,4.7-2,4.7-7.4H80
		c-0.1,6.5-2.9,10.1-7.9,10.1c-5.2,0-8.5-4-8.5-15c0-11,3.2-15,8.5-15c4.3,0,7,3,7.5,9.2H76.4z"/>
	<path class="st1" d="M89.9,735.7c4.4,0,6.4,3.3,6.4,10.9c0,7.6-2,10.9-6.4,10.9c-4.4,0-6.4-3.3-6.4-10.9
		C83.4,739,85.5,735.7,89.9,735.7z M89.9,755.1c2.5,0,3.5-1.5,3.5-8.5c0-7-1.1-8.5-3.5-8.5c-2.5,0-3.5,1.5-3.5,8.5
		C86.4,753.6,87.4,755.1,89.9,755.1z"/>
	<path class="st1" d="M101,757.1v-21h2.7v2.3c1.1-1.3,2.9-2.7,4.9-2.7c1.7,0,3.2,1.1,3.8,2.7c1.2-1.3,2.8-2.7,4.9-2.7
		c2.7,0,4.2,1.9,4.2,4.9v16.6h-2.9v-16.2c0-2.2-0.6-2.8-2.2-2.8c-1.8,0-2.8,1.3-3.7,2.2v16.8h-2.9v-16.2c0-2.2-0.8-2.8-2.3-2.8
		c-1.8,0-2.8,1.3-3.6,2.2v16.8H101z"/>
	<path class="st1" d="M130.3,738.1L130.3,738.1c1-1.5,2.5-2.4,4.4-2.4c3.3,0,6.1,2.8,6.1,10.9c0,8.1-2.7,10.9-6.1,10.9
		c-1.6,0-2.9-1-3.9-1.9v8.4h-2.9v-27.9h2.4V738.1z M130.8,753.2c0.9,0.9,1.9,1.9,3.2,1.9c2.5,0,3.9-2,3.9-8.5c0-6.5-1.5-8.5-4-8.5
		c-0.9,0-2.2,0.8-3.1,2V753.2z"/>
	<path class="st1" d="M157.8,757.1H155v-2.3c-1.4,1.4-3.4,2.7-4.8,2.7c-2.9,0-4.6-1.6-4.6-5.5v-15.9h2.9v15.5c0,2.4,0.7,3.5,2.3,3.5
		c1.4,0,2.7-1,4-2.6v-16.4h2.9V757.1z"/>
	<path class="st1" d="M161,736.1h2.8v-7h2.9v7h3.9v2.4h-3.9v14.7c0,1.2,0.6,2.1,2.1,2.1c0.6,0,1.3-0.2,1.8-0.4v2.2
		c-0.8,0.2-1.5,0.4-2.7,0.4c-2.7,0-4-1.3-4-4.5v-14.5H161V736.1z"/>
	<path class="st1" d="M176.3,747.1v1.2c0,5.1,1.2,6.8,3.9,6.8c2.2,0,3.2-2.1,3.5-4l2.8,0.3c-0.4,3.2-2.8,6.1-6.7,6.1
		c-4.4,0-6.4-3.3-6.4-10.9c0-7.6,2-10.9,6.4-10.9c4.5,0,6.4,4,6.4,10v1.4H176.3z M183.3,744.7c-0.1-4.5-0.9-6.6-3.5-6.6
		c-2.1,0-3.5,1.5-3.5,6.6H183.3z"/>
	<path class="st1" d="M190.3,736.1h2.9v2.6h0.1c1.7-2.6,3-3,5.3-3v2.8c-2.2,0-3.8,0.7-5.4,3.7v15h-2.9V736.1z"/>
	<path class="st1" d="M221,735.4c-0.2-3-1.5-5.3-4.5-5.3c-2.4,0-4,1.6-4,3.8c0,6.6,11.7,6.7,11.7,16.1c0,4.7-2.7,7.4-7.5,7.4
		c-4.6,0-7.3-3.4-7.4-8.3h2.9c0.1,3.4,1.7,5.6,4.8,5.6c2.6,0,4.3-1.7,4.3-4.8c0-6.6-11.7-7.4-11.7-15.7c0-4.1,2.8-6.8,7-6.8
		c4.2,0,7,2.8,7.2,7.9H221z"/>
	<path class="st1" d="M237,742.3c-0.3-3.2-1.5-4.2-3.3-4.2c-2.5,0-3.5,1.5-3.5,8.5c0,7,1.1,8.5,3.5,8.5c1.9,0,2.9-1,3.4-4.6h2.8
		c-0.5,4.1-2.4,7-6.2,7c-4.4,0-6.4-3.3-6.4-10.9c0-7.6,2-10.9,6.4-10.9c3.8,0,5.6,2.5,6.2,6.6H237z"/>
	<path class="st1" d="M244.6,727.9h2.9v3.4h-2.9V727.9z M244.6,736.1h2.9v21h-2.9V736.1z"/>
	<path class="st1" d="M254.9,747.1v1.2c0,5.1,1.2,6.8,3.9,6.8c2.2,0,3.2-2.1,3.5-4l2.7,0.3c-0.4,3.2-2.8,6.1-6.7,6.1
		c-4.4,0-6.4-3.3-6.4-10.9c0-7.6,2-10.9,6.4-10.9c4.4,0,6.4,4,6.4,10v1.4H254.9z M262,744.7c-0.1-4.5-0.9-6.6-3.5-6.6
		c-2.1,0-3.5,1.5-3.5,6.6H262z"/>
	<path class="st1" d="M269.2,736.1h2.8v2.3c1.4-1.4,3.4-2.7,4.8-2.7c2.9,0,4.6,1.6,4.6,5.5v15.9h-2.9v-15.5c0-2.4-0.7-3.5-2.3-3.5
		c-1.4,0-2.7,1-4,2.6v16.4h-2.9V736.1z"/>
	<path class="st1" d="M295.5,742.3c-0.3-3.2-1.5-4.2-3.3-4.2c-2.5,0-3.5,1.5-3.5,8.5c0,7,1,8.5,3.5,8.5c1.9,0,2.9-1,3.4-4.6h2.8
		c-0.5,4.1-2.4,7-6.2,7c-4.4,0-6.4-3.3-6.4-10.9c0-7.6,2-10.9,6.4-10.9c3.8,0,5.6,2.5,6.1,6.6H295.5z"/>
	<path class="st1" d="M304.4,747.1v1.2c0,5.1,1.2,6.8,3.9,6.8c2.2,0,3.2-2.1,3.5-4l2.8,0.3c-0.4,3.2-2.8,6.1-6.7,6.1
		c-4.4,0-6.4-3.3-6.4-10.9c0-7.6,2-10.9,6.4-10.9c4.4,0,6.4,4,6.4,10v1.4H304.4z M311.4,744.7c-0.1-4.5-0.9-6.6-3.5-6.6
		c-2.1,0-3.5,1.5-3.5,6.6H311.4z"/>
	<path class="st1" d="M327.3,741.8c0.6-3.3,2.5-6.2,6.2-6.2c3.9,0,6,2.3,6,6v11.7c0,1.9,0.2,3.2,0.5,3.7h-3l-0.4-1.8
		c-1.1,1.1-3.2,2.2-4.5,2.2c-3.3,0-5.5-2.1-5.5-5.4c0-5.2,5.7-7.8,9.9-8.7v-1.5c0-2.3-1.2-3.8-3-3.8c-2.2,0-3.3,2.2-3.6,4.1
		L327.3,741.8z M336.6,745.8c-2.7,0.8-7,2.8-7,6.1c0,2,0.9,3.2,3,3.2c1.6,0,3-1.1,4-2.2V745.8z"/>
	<path class="st1" d="M345.6,736.1h2.8v2.3c1.4-1.4,3.4-2.7,4.8-2.7c2.9,0,4.6,1.6,4.6,5.5v15.9h-2.9v-15.5c0-2.4-0.7-3.5-2.3-3.5
		c-1.4,0-2.7,1-4,2.6v16.4h-2.9V736.1z"/>
	<path class="st1" d="M373.1,755.1L373.1,755.1c-1.1,1.5-2.6,2.4-4.4,2.4c-3.3,0-6.1-2.8-6.1-10.9c0-8.1,2.8-10.9,6.1-10.9
		c1.6,0,2.9,1,3.9,1.9v-9.7h2.9v23.5c0,2.8,0.2,4.4,0.5,5.7h-2.7L373.1,755.1z M372.6,740c-0.8-0.9-1.9-1.9-3.2-1.9
		c-2.5,0-3.9,2-3.9,8.5c0,6.5,1.5,8.5,4,8.5c0.9,0,2.2-0.8,3.1-2V740z"/>
	<path class="st1" d="M403.6,727.9v2.7h-10.2v10h7.5v2.7h-7.5v11.2h10.7v2.7h-13.8v-29.2H403.6z"/>
	<path class="st1" d="M408.5,736.1h2.7v2.3c1.4-1.4,3.4-2.7,4.8-2.7c2.9,0,4.6,1.6,4.6,5.5v15.9h-2.9v-15.5c0-2.4-0.7-3.5-2.3-3.5
		c-1.4,0-2.7,1-4,2.6v16.4h-2.9V736.1z"/>
	<path class="st1" d="M440.1,738.3c-0.3-0.1-0.6-0.1-0.9-0.1c-0.8,0-1.3,0.3-1.8,0.8c0.4,1.3,0.6,2.3,0.6,4c0,5.3-2.4,7.5-5.7,7.5
		c-0.7,0-1.3-0.2-1.9-0.2c-0.5,0.1-1.5,0.6-1.5,1.4c0,1.5,2.4,1.6,5.1,2.1c3,0.6,5.7,1.6,5.7,5.1c0,2.7-2.7,4.9-7.1,4.9
		c-4.8,0-7.2-1.8-7.2-4.5c0-1.9,1.2-3.4,3.1-4.2c-1.3-0.4-2.3-1.4-2.3-2.8c0-1.6,1.4-2.5,2.8-2.8c-1.7-1.2-2.5-3.8-2.5-6
		c0-5,2.4-7.9,6.1-7.9c1.4,0,3.2,0.6,3.8,1.9c0.6-1.1,1.8-1.9,3.6-1.9V738.3z M431,756c-1.7,0.7-2.8,1.7-2.8,2.9c0,1.7,1.5,3,4.6,3
		c3.2,0,4.4-1.3,4.4-3C437.1,756.9,433.5,756.6,431,756z M432.3,748.5c1.7,0,3.1-1.3,3.1-5.3c0-4-1.4-5.3-3.1-5.3
		c-1.7,0-3.1,1.3-3.1,5.3C429.2,747.2,430.6,748.5,432.3,748.5z"/>
	<path class="st1" d="M444.5,727.9h2.9v3.4h-2.9V727.9z M444.5,736.1h2.9v21h-2.9V736.1z"/>
	<path class="st1" d="M453.4,736.1h2.8v2.3c1.4-1.4,3.4-2.7,4.8-2.7c2.9,0,4.6,1.6,4.6,5.5v15.9h-2.9v-15.5c0-2.4-0.7-3.5-2.3-3.5
		c-1.4,0-2.7,1-4,2.6v16.4h-2.9V736.1z"/>
	<path class="st1" d="M472.8,747.1v1.2c0,5.1,1.2,6.8,3.9,6.8c2.2,0,3.2-2.1,3.5-4l2.8,0.3c-0.4,3.2-2.8,6.1-6.7,6.1
		c-4.4,0-6.4-3.3-6.4-10.9c0-7.6,2-10.9,6.4-10.9c4.4,0,6.4,4,6.4,10v1.4H472.8z M479.8,744.7c-0.1-4.5-0.9-6.6-3.5-6.6
		c-2.1,0-3.5,1.5-3.5,6.6H479.8z"/>
	<path class="st1" d="M488.5,747.1v1.2c0,5.1,1.2,6.8,3.9,6.8c2.2,0,3.2-2.1,3.5-4l2.7,0.3c-0.4,3.2-2.8,6.1-6.7,6.1
		c-4.4,0-6.4-3.3-6.4-10.9c0-7.6,2-10.9,6.4-10.9c4.4,0,6.4,4,6.4,10v1.4H488.5z M495.6,744.7c-0.1-4.5-0.9-6.6-3.5-6.6
		c-2.1,0-3.5,1.5-3.5,6.6H495.6z"/>
	<path class="st1" d="M502.6,736.1h2.9v2.6h0.1c1.7-2.6,3-3,5.3-3v2.8c-2.2,0-3.8,0.7-5.4,3.7v15h-2.9V736.1z"/>
	<path class="st1" d="M514.2,727.9h2.9v3.4h-2.9V727.9z M514.2,736.1h2.9v21h-2.9V736.1z"/>
	<path class="st1" d="M523.1,736.1h2.8v2.3c1.4-1.4,3.4-2.7,4.8-2.7c2.9,0,4.6,1.6,4.6,5.5v15.9h-2.9v-15.5c0-2.4-0.7-3.5-2.3-3.5
		c-1.4,0-2.7,1-4,2.6v16.4h-2.9V736.1z"/>
	<path class="st1" d="M554.6,738.3c-0.3-0.1-0.6-0.1-0.9-0.1c-0.8,0-1.3,0.3-1.8,0.8c0.4,1.3,0.6,2.3,0.6,4c0,5.3-2.4,7.5-5.7,7.5
		c-0.6,0-1.3-0.2-1.9-0.2c-0.5,0.1-1.5,0.6-1.5,1.4c0,1.5,2.4,1.6,5.1,2.1c3,0.6,5.7,1.6,5.7,5.1c0,2.7-2.7,4.9-7.1,4.9
		c-4.8,0-7.2-1.8-7.2-4.5c0-1.9,1.2-3.4,3.1-4.2c-1.3-0.4-2.3-1.4-2.3-2.8c0-1.6,1.4-2.5,2.8-2.8c-1.7-1.2-2.5-3.8-2.5-6
		c0-5,2.4-7.9,6.1-7.9c1.4,0,3.2,0.6,3.8,1.9c0.6-1.1,1.8-1.9,3.6-1.9V738.3z M545.6,756c-1.7,0.7-2.8,1.7-2.8,2.9
		c0,1.7,1.5,3,4.6,3c3.2,0,4.4-1.3,4.4-3C551.7,756.9,548.1,756.6,545.6,756z M546.9,748.5c1.7,0,3.1-1.3,3.1-5.3
		c0-4-1.4-5.3-3.1-5.3c-1.7,0-3.1,1.3-3.1,5.3C543.8,747.2,545.2,748.5,546.9,748.5z"/>
</g>
</svg>
