<?xml version="1.0" encoding="utf-8"?>
<!-- Generator: Adobe Illustrator 22.0.0, SVG Export Plug-In . SVG Version: 6.00 Build 0)  -->
<svg version="1.1" id="Layer_1" xmlns="http://www.w3.org/2000/svg" xmlns:xlink="http://www.w3.org/1999/xlink" x="0px" y="0px"
	 viewBox="0 0 612 792" style="enable-background:new 0 0 612 792;" xml:space="preserve">
<style type="text/css">
	.st0{fill:none;}
	.st1{fill:#FFFFFF;}
	.st2{clip-path:url(#SVGID_2_);}
</style>
<g>
	<path class="st0" d="M103.4,207.1c-34,19.9-65.5,40.4-94.1,60.3c2.3,2,4.2,4.5,5.4,7.4c28.4-19.8,59.7-40.1,93.5-59.9
		c80.5-47.1,184.6-96.1,302-123.5c-1.7-2.6-2.9-5.5-3.7-8.5C288.7,110.6,184.3,159.8,103.4,207.1z"/>
	<path class="st0" d="M556.7,66.9c0-2,0.4-3.9,0.9-5.7c-33,1.6-65.4,5.2-97,10.6c0.2,1.5,0.5,2.9,0.5,4.5c0,1.7-0.2,3.3-0.5,4.9
		c31.4-5.4,63.7-9.2,96.5-10.8C556.8,69.3,556.7,68.1,556.7,66.9z"/>
	<path class="st0" d="M484.2-46.7c-1.7,2.6-4,4.8-6.6,6.5c31.7,29.7,59.8,60.9,84.6,93.2c2.1-2.3,4.7-4.1,7.7-5.2
		C544.8,15,516.3-16.6,484.2-46.7z"/>
	<path class="st1" d="M487.4-59.2c37.4,0.5,76.1,3.5,116,9.4c-69.8-53.1-154.5-87.5-246.6-95.8c35.2,22.5,67.6,46.6,97.3,72
		c3.5-2.9,8-4.7,12.9-4.7C477.8-78.4,486.6-69.9,487.4-59.2z"/>
	<path class="st1" d="M337.2-147.1c-7.9-0.4-15.8-0.6-23.8-0.6c-31.9,0-63.1,3.2-93.2,9.1c41.1,26.4,79.7,56.6,115.7,90.3
		c35.1-5.6,72.1-9.3,110.6-10.5c0.1-2.7,0.8-5.3,1.9-7.7C414.8-95,377.8-122.1,337.2-147.1z"/>
	<path class="st1" d="M724.1,80.5c-3.9-0.7-7.8-1.3-11.6-2c-5.4,12.3-12.7,26.3-21.9,41.3c-12.5,20.5-20,43.2-31.8,72
		c31.8,70.2,50.6,142,57.6,212c9.3,2,16.2,10.3,16.2,20.1c0,8.9-5.7,16.4-13.6,19.3c2.3,63.1-5.2,124-21.6,179.9
		c61.5-80.8,98.1-181.6,98.1-290.8C795.5,240.1,769.3,153.8,724.1,80.5z"/>
	<path class="st1" d="M631.6,141.8c13.8-21.7,22.6-41.2,19.4-52.8c-1.3-4.7-0.5-10.8,1.4-17.2c-18.4-1.5-36.6-2.2-54.7-2.3
		c-0.5,3.9-2,7.4-4.4,10.3C607.2,100.2,620,120.9,631.6,141.8z"/>
	<path class="st1" d="M460.6,71.8c31.6-5.4,64-9,97-10.6c0.9-3.1,2.5-5.9,4.6-8.3c-24.8-32.3-53-63.5-84.6-93.2
		c-3.1,1.9-6.7,3.1-10.6,3.1c-8.5,0-15.8-5.1-18.9-12.5c-36,1.1-70.7,4.3-103.8,9.4c29,27.9,56,58.2,81,90.3
		c2.6-0.8,5.3-1.4,8.1-1.4C447.1,48.7,458.4,58.7,460.6,71.8z"/>
	<path class="st1" d="M569.9,47.8c2.3-0.9,4.7-1.4,7.3-1.4c9,0,16.7,5.9,19.4,14c19.4,0.1,39,0.9,58.8,2.6
		c6.8-16.6,17.8-33.3,17.9-35.5c0.1-3.2,4-5.2,7.2-3.7c-19-22.5-39.9-43.3-62.6-62.1c-45.6-7.6-89.7-11.2-132-11.7
		c-0.5,1.2-1.1,2.3-1.8,3.3C516.3-16.6,544.8,15,569.9,47.8z"/>
	<path class="st1" d="M716.5,68.7c-0.1,0.4-0.3,0.7-0.4,1.1c0.4,0.1,0.9,0.1,1.3,0.2C717.2,69.6,716.8,69.1,716.5,68.7z"/>
	<path class="st1" d="M692.2,57.7c3.2-4.3,6.2-7.9,8.9-11.1c-4.8-6.5-9.8-13-15-19.2c0.4,1.2,0.8,2.7,0.8,4.4
		C687.5,44.2,677.7,70.8,692.2,57.7z"/>
	<path class="st1" d="M-82.7,352.5c-0.7-0.5-1.4-1-2.1-1.5c-4.1,3.4-7.9,6.7-11.7,9.9c2.6,0.5,5.3,0.9,8.1,1.3
		C-81.7,363.3-73.3,358.5-82.7,352.5z"/>
	<path class="st1" d="M568.4,345.6c-23.4,30.5-52.5,64.9-89.5,104.1c-84.3,130.8-67.9,266.3-44.4,348.4
		c51.6-13.3,99.9-35,143.3-63.5l-1-0.4C613,635.6,612.2,492.7,568.4,345.6z"/>
	<path class="st1" d="M223.3,500.2c-134-14.9-251-111.7-251-111.7s-32.3,9.6-50.7,2.5c-13.4-5.2-24.6-11.7-32.6-17.6
		c-30.1,26.4-46.9,43.6-47.3,44l-1-0.9c35.7,201.5,197.3,360,400.4,391.2c4.1-30.6,11.7-99.3,15-202.6
		C256.2,605.1,232.3,501.2,223.3,500.2z"/>
	<path class="st1" d="M537,261.4c-22.8-55.5-51.8-110.5-87.4-162.8c-4.6,3.3-10.1,5.3-16.2,5.3c-9.7,0-18.1-5-23.1-12.5
		c-117.4,27.4-221.5,76.4-302,123.5c-33.8,19.8-65.1,40.1-93.5,59.9c1.1,2.5,1.7,5.2,1.7,8c0,11.4-9.3,20.6-20.6,20.6
		c-5.2,0-10-2-13.6-5.3c-20.9,15.4-39.8,30.2-56.4,43.8c4,1.8,7.6,3.3,8.3,3.3c18.8,2,35,11.5,35,11.5s128.3,57.4,285.2,45.6
		c0,0,14.9-3.8,35.9-10c3.3-10.9,0.7-18.5-1.9-25.1c-8.8-4-18.2-13.4-22.4-19.2c-17.2-23.9-31.9-81.4-9.8-112.7
		c1.1-1.5,40.2-24.7,77.7-11.6c37.2,13,28,66.6,22.1,104.7c-3.7,23.8-2.9,21.3-0.5,41.5C399,353.4,463.6,341.2,537,261.4z"/>
	<path class="st1" d="M707.7,444c-10.3-1.1-18.4-9.8-18.4-20.4c0-9.7,6.7-17.8,15.7-20c-6.6-65.9-24-133.6-53.1-199.9
		c-14.7,34-36.3,76.3-78.1,132.3c43.7,141.6,48.9,283.7,13.5,390c34.1-23.8,65.1-52,91.9-83.6C700.3,581.9,710.1,514.4,707.7,444z"
		/>
	<path class="st1" d="M557,70.4c-32.9,1.6-65.1,5.4-96.5,10.8c-0.7,4-2.3,7.7-4.6,10.9c34.4,50.1,64,104.2,88,161.5
		c3-3.4,6-6.9,9-10.6c17.4-21,49.9-58.5,72.9-92.5c-11.9-22-25.1-43.7-39.8-65c-2.7,1.3-5.6,2-8.7,2C567.1,87.5,558.7,80.1,557,70.4
		z"/>
	<path class="st1" d="M-4.2,262.3c5.2,0,9.9,2,13.5,5.2c28.6-19.9,60.1-40.4,94.1-60.3c80.8-47.3,185.3-96.5,303.2-124.2
		c-0.5-2.1-0.9-4.3-0.9-6.6c0-9.1,4.5-17.2,11.4-22.2c-25.2-32.4-53.2-63.5-84-92.6c-106.7,17.6-196.7,52.6-264.9,87
		C-53,109.6-129.9,180.4-147.1,196.9c-12.6,42.9-19.5,88.4-19.5,135.3c0,25.3,2,50.2,5.8,74.5c6.6-6.5,21.1-20.6,42.6-39.4
		c-5.2-4.9-7.5-8.8-5.8-10.1c3.3-2.7-1.3-2.1,7.4-0.4c2.6,0.5,5.5,1.1,8.6,1.8c5.1-4.4,10.6-9.1,16.4-13.9c-7.8-9.7-4-18.3,6-8.9
		c0.5,0.5,1.5,1.1,2.6,1.8c17.5-14.4,37.6-30.2,59.9-46.7c-1-2.4-1.6-5.1-1.6-8C-24.8,271.5-15.6,262.3-4.2,262.3z"/>
	<path class="st1" d="M325.8-47.2c-35.6-32.7-74.7-62.8-117.7-89.6C44.1-99.6-88.4,21.6-141.5,179c30.1-27.1,101.9-86.6,205.8-139.1
		C131.9,5.8,220.7-28.9,325.8-47.2z"/>
	<g>
		<defs>
			<path id="SVGID_1_" d="M433.3,48.7c-2.8,0-5.5,0.6-8.1,1.4c-3,0.9-5.7,2.3-8.2,4.1c-6.8,5-11.4,13.1-11.4,22.2
				c0,2.3,0.4,4.4,0.9,6.6c0.8,3.1,2,6,3.7,8.5c4.9,7.5,13.4,12.5,23.1,12.5c6.1,0,11.6-2,16.2-5.3c2.5-1.8,4.7-4,6.4-6.5
				c2.3-3.2,3.8-6.9,4.6-10.9c0.3-1.6,0.5-3.2,0.5-4.9c0-1.5-0.2-3-0.5-4.5C458.4,58.7,447.1,48.7,433.3,48.7z"/>
		</defs>
		<clipPath id="SVGID_2_">
			<use xlink:href="#SVGID_1_"  style="overflow:visible;"/>
		</clipPath>
		<path class="st2" d="M9.3,267.4c-3.6-3.2-8.3-5.2-13.5-5.2c-11.3,0-20.6,9.2-20.6,20.6c0,2.8,0.6,5.5,1.6,8
			c1.2,2.9,3.1,5.4,5.4,7.4c3.6,3.2,8.4,5.3,13.6,5.3c11.4,0,20.6-9.2,20.6-20.6c0-2.9-0.6-5.6-1.7-8
			C13.5,271.9,11.6,269.5,9.3,267.4z"/>
		<path class="st2" d="M577.3,46.3c-2.6,0-5,0.5-7.3,1.4c-3,1.1-5.6,2.9-7.7,5.2c-2.2,2.3-3.7,5.1-4.6,8.3c-0.5,1.8-0.9,3.7-0.9,5.7
			c0,1.2,0.2,2.3,0.3,3.4c1.6,9.7,10.1,17.2,20.2,17.2c3.1,0,6.1-0.8,8.7-2c2.8-1.3,5.3-3.3,7.2-5.7c2.3-2.9,3.9-6.4,4.4-10.3
			c0.1-0.9,0.3-1.7,0.3-2.6c0-2.3-0.5-4.5-1.2-6.6C593.9,52.2,586.3,46.3,577.3,46.3z"/>
		<path class="st2" d="M714.2,403.6c-1.4-0.3-2.9-0.5-4.4-0.5c-1.7,0-3.3,0.3-4.9,0.6c-9,2.2-15.7,10.3-15.7,20
			c0,10.6,8.1,19.3,18.4,20.4c0.7,0.1,1.4,0.2,2.1,0.2c2.5,0,4.9-0.5,7.1-1.3c7.9-2.9,13.5-10.4,13.5-19.3
			C730.4,413.8,723.5,405.6,714.2,403.6z"/>
		<path class="st2" d="M466.9-78.4c-4.9,0-9.4,1.8-12.9,4.7c-2.4,2-4.4,4.4-5.7,7.3c-1.1,2.4-1.7,5-1.9,7.7c0,0.3-0.1,0.6-0.1,0.9
			c0,2.9,0.6,5.6,1.7,8.1c3.2,7.3,10.4,12.5,18.9,12.5c3.9,0,7.5-1.2,10.6-3.1c2.7-1.6,5-3.8,6.6-6.5c0.7-1.1,1.3-2.2,1.8-3.3
			c1-2.4,1.5-5,1.5-7.7c0-0.5-0.1-1-0.1-1.5C486.6-69.9,477.8-78.4,466.9-78.4z"/>
	</g>
</g>
<g>
	<path class="st1" d="M603.4-122c-82.9-53.4-181.6-82.5-283.6-82.5c-222.7,0-411.5,136.3-474.9,323.7c-10.2,30,2.4,0.3,2.4,0.3
		l0.1-0.3C-73.2-55,109.8-167.5,313.7-167.5c100.4,0,206.8,34.8,289.7,86.3C603.4-81.2,596-100.2,603.4-122z"/>
	<path class="st1" d="M643-161.5c-89.1-67.4-204.8-104.2-328.3-104.2c-285.2,0-516.4,217.2-516.4,485.2c0,0,48.4-438.5,510.2-438.5
		c111.5,0,214.7,33.3,299.1,89.7C615.4-143.7,627.9-155.1,643-161.5z"/>
</g>
<g>
	<path class="st1" d="M610.7-96.4c0-33,26.9-59.8,59.9-59.8c33,0,59.9,26.8,59.9,59.8c0,33-26.9,59.9-59.9,59.9
		C637.5-36.5,610.7-63.4,610.7-96.4z"/>
</g>
<rect x="-323.7" y="-358" class="st0" width="1248.8" height="1317.3"/>
<g>
	<g>
		<g>
			<path class="st1" d="M248.1,1016.9v-81c0-13.2-8.6-14.4-22.8-14.4V918h61.2c43.4,0,89.5,6.3,89.5,58.6
				c0,52.1-48.4,58.2-89.5,58.2h-38.3L248.1,1016.9z M271.4,1013.2c0,12.8,2.1,14.7,15.2,14.7c45,0,63.6-16.1,63.6-51.4
				c0-32.3-13.9-51.8-63.6-51.8c-13.1,0-15.2,1.1-15.2,14.7V1013.2z"/>
			<path class="st1" d="M-28.4,935.9v58.4c0,24-5.2,42.3-59.7,42.3c-54.2,0-62.5-17.5-62.5-42.3v-58.4c0-13.2-8.4-14.4-22.8-14.4
				V918h45.5v3.5c0,0,0.6,1.2,0.6,14.4v58.4c0,17.9,6.3,35.4,40.3,35.4c37.7,0,43.7-14.6,43.7-35.4v-58.4c0-13.2-8.6-14.4-22.8-14.4
				V918h38L-28.4,935.9z"/>
			<path class="st1" d="M72.2,1028.7c-57.3,0-64.6-34.9-64.6-57.5C7.6,953,11,923,53.1,923c32.4,0,42.9,15.8,46.3,25.6h6.5
				l-2.4-27.5c-11.5-2.1-29.3-4.9-50.2-4.9c-56,0-71.7,23.9-71.7,56.3c0,37.4,25.1,64,77.4,64c15.2,0,27.5-1,38.2-2.9v-7.3
				C91.4,1027.6,83.5,1028.7,72.2,1028.7z"/>
			<path class="st1" d="M191.7,971.8c-23.9-9-56.6-14-56.6-29.7c0-11.6,16.2-19.1,34.6-19.1c29.4,0,40.4,10.9,42.8,20.2h6.9l-1.9-24
				c-12.4-1.6-24.2-3-42.6-3c-34.6,0-61.8,8.6-61.8,29.7c0,11.2,5.8,17.5,17.9,23.5c25.5,12.5,71.1,18.2,71.1,37.2
				c0,12.1-15.7,22.1-39.8,22.1c-2.6,0-5-0.1-7.3-0.2c-7.3,0.2-23.5-1.4-36.1-3.2v8.6c9.7,1,26.4,2.7,41.2,2.7
				c37.6,0,67.8-10.5,67.8-32.8C228,987.1,213.4,979.9,191.7,971.8z"/>
		</g>
	</g>
	<g>
		<path class="st1" d="M568.5,1029.1c-8.2,2.6-21.6,6.7-46.6,6.7c-52.6,0-71.5-22.9-71.5-62.3c0-31.9,13.6-57.8,67.7-57.8
			c21.6,0,37.3,2.6,48.5,5.2l1.5,29.2h-7c-1-8.9-14.3-26.1-40.5-26.1c-35.7,0-41.5,27.5-41.5,49.4c0,27.7,13.3,52.5,47.1,52.5
			c23,0,34.9-5.3,42.4-8.9V1029.1z"/>
		<path class="st1" d="M673.3,946c-1.9-9.5-8.2-21.9-34-21.9c-19.6,0-30.6,7.2-30.6,16.3c0,17.2,41.2,25.2,59.4,35.4
			c11.9,6.6,20.4,14.4,20.4,26.3c0,24.7-26.4,33.8-63.3,33.8c-19.2,0-34.9-3.2-43.2-4.7l-1.5-28.9h7c2.9,8.9,8.5,25.2,40.3,25.2
			c21.1,0,33-8.2,33-18.9c0-17.2-28.4-23.5-50.7-33.8c-14.6-6.8-26.4-15.2-26.4-29.2c0-18.9,20.1-29.8,55.5-29.8
			c16.2,0,32.3,2.3,39.5,3.2l1.5,27.1H673.3z"/>
		<path class="st1" d="M689,1029.6c17,0,20.6-2.6,20.6-16.3v-75.3c0-13.7-3.6-16.3-20.6-16.3v-4.4h114.2l1.5,25.4h-7
			c-1-9.5-4.1-17.3-31.3-17.3h-15.5c-11.9,0-14.5,2.8-14.5,12.6v31h31.8c15.8,0,18.2-2.5,18.2-14h6.5v36.2h-6.5
			c0-10.5-2.4-14.2-18.2-14.2h-31.8v36.3c0,11.7,1.9,12.6,14.5,12.6h22.3c20.9,0,27.6-6.3,28.4-17.3h7l-1.5,25.4H689V1029.6z"/>
	</g>
</g>
<g>
	<path class="st1" d="M-147.8,1083.5c-0.8-9.2-3.7-13.1-8.7-13.1c-7.4,0-10.6,6.5-10.6,24.7c0,18.2,3.2,24.7,10.6,24.7
		c5.9,0,9.3-4,9.5-14.9h6.3c-0.2,12.9-5.8,20.2-15.8,20.2c-10.4,0-16.9-7.9-16.9-30c0-22.1,6.5-30,16.9-30c8.7,0,14,6,15,18.4
		H-147.8z"/>
	<path class="st1" d="M-120.9,1081.4c8.8,0,12.9,6.6,12.9,21.8c0,15.2-4,21.9-12.9,21.9c-8.8,0-12.9-6.6-12.9-21.9
		C-133.8,1088-129.7,1081.4-120.9,1081.4z M-120.9,1120.2c4.9,0,7-3.1,7-17c0-13.9-2.1-17-7-17c-4.9,0-7,3.1-7,17
		C-127.9,1117.1-125.8,1120.2-120.9,1120.2z"/>
	<path class="st1" d="M-98.7,1124.2v-42.1h5.3v4.6c2.3-2.7,5.8-5.4,9.8-5.4c3.3,0,6.5,2.2,7.5,5.3c2.3-2.6,5.7-5.3,9.8-5.3
		c5.5,0,8.5,3.7,8.5,9.7v33.2h-5.8v-32.4c0-4.4-1.3-5.7-4.4-5.7c-3.6,0-5.6,2.5-7.4,4.4v33.7h-5.8v-32.4c0-4.4-1.5-5.7-4.6-5.7
		c-3.6,0-5.6,2.5-7.1,4.4v33.7H-98.7z"/>
	<path class="st1" d="M-40,1086.2h0.2c1.9-3,4.9-4.9,8.6-4.9c6.6,0,12.1,5.7,12.1,21.8c0,16.2-5.5,21.9-12.1,21.9
		c-3.2,0-5.8-2-7.8-3.9v16.8h-5.8v-55.8h4.9V1086.2z M-39,1116.5c1.7,1.7,3.7,3.7,6.3,3.7c4.9,0,7.8-4,7.8-17c0-12.9-3.1-17-7.9-17
		c-1.8,0-4.4,1.6-6.2,4V1116.5z"/>
	<path class="st1" d="M14.9,1124.2H9.4v-4.6c-2.7,2.8-6.8,5.4-9.5,5.4c-5.8,0-9.2-3.2-9.2-11v-31.9h5.8v31.1c0,4.9,1.5,7,4.6,7
		c2.8,0,5.4-1.9,8-5.2v-32.9h5.8V1124.2z"/>
	<path class="st1" d="M21.4,1082.2H27v-14.1h5.8v14.1h7.8v4.9h-7.8v29.5c0,2.4,1.3,4.2,4.2,4.2c1.1,0,2.6-0.5,3.6-0.8v4.4
		c-1.6,0.5-3.1,0.8-5.5,0.8c-5.5,0-8.1-2.6-8.1-9.1v-29h-5.7V1082.2z"/>
	<path class="st1" d="M51.9,1104.2v2.3c0,10.3,2.4,13.7,7.9,13.7c4.4,0,6.3-4.1,7-7.9l5.5,0.7c-0.9,6.3-5.7,12.1-13.4,12.1
		c-8.8,0-12.9-6.6-12.9-21.9c0-15.2,4-21.8,12.9-21.8c8.9,0,12.9,7.9,12.9,20.1v2.8H51.9z M65.9,1099.3c-0.2-9.1-1.8-13.1-7-13.1
		c-4.2,0-7,3.1-7,13.1H65.9z"/>
	<path class="st1" d="M80,1082.2h5.8v5.1H86c3.5-5.1,6.1-5.9,10.7-5.9v5.5c-4.4,0-7.7,1.4-10.8,7.4v29.9H80V1082.2z"/>
	<path class="st1" d="M141.4,1080.9c-0.5-6-2.9-10.5-9-10.5c-4.9,0-8,3.2-8,7.7c0,13.2,23.5,13.3,23.5,32.1c0,9.3-5.3,14.9-15,14.9
		c-9.1,0-14.6-6.7-14.8-16.5h5.8c0.2,6.9,3.4,11.2,9.6,11.2c5.3,0,8.7-3.4,8.7-9.6c0-13.3-23.5-14.8-23.5-31.5
		c0-8.3,5.7-13.6,14.1-13.6c8.4,0,13.9,5.7,14.4,15.9H141.4z"/>
	<path class="st1" d="M173.4,1094.6c-0.6-6.3-3.1-8.4-6.6-8.4c-4.9,0-7,3.1-7,17c0,13.9,2.1,17,7,17c3.7,0,5.8-1.9,6.8-9.2h5.7
		c-1,8.2-4.9,14.1-12.5,14.1c-8.8,0-12.9-6.6-12.9-21.9c0-15.2,4-21.8,12.9-21.8c7.6,0,11.2,5,12.3,13.3H173.4z"/>
	<path class="st1" d="M188.6,1065.8h5.8v6.8h-5.8V1065.8z M188.6,1082.2h5.8v42.1h-5.8V1082.2z"/>
	<path class="st1" d="M209.2,1104.2v2.3c0,10.3,2.3,13.7,7.9,13.7c4.4,0,6.3-4.1,7-7.9l5.5,0.7c-0.9,6.3-5.7,12.1-13.3,12.1
		c-8.8,0-12.9-6.6-12.9-21.9c0-15.2,4-21.8,12.9-21.8c8.9,0,12.9,7.9,12.9,20.1v2.8H209.2z M223.2,1099.3c-0.2-9.1-1.8-13.1-7-13.1
		c-4.2,0-7,3.1-7,13.1H223.2z"/>
	<path class="st1" d="M237.8,1082.2h5.5v4.6c2.7-2.8,6.8-5.4,9.5-5.4c5.8,0,9.2,3.2,9.2,11v31.9h-5.8v-31.1c0-4.9-1.5-7-4.6-7
		c-2.8,0-5.4,1.9-8,5.2v32.9h-5.8V1082.2z"/>
	<path class="st1" d="M290.2,1094.6c-0.6-6.3-3.1-8.4-6.6-8.4c-4.9,0-7,3.1-7,17c0,13.9,2.1,17,7,17c3.7,0,5.8-1.9,6.8-9.2h5.7
		c-1,8.2-4.9,14.1-12.5,14.1c-8.8,0-12.9-6.6-12.9-21.9c0-15.2,4-21.8,12.9-21.8c7.6,0,11.2,5,12.3,13.3H290.2z"/>
	<path class="st1" d="M308,1104.2v2.3c0,10.3,2.4,13.7,7.9,13.7c4.5,0,6.3-4.1,7-7.9l5.5,0.7c-0.9,6.3-5.7,12.1-13.3,12.1
		c-8.8,0-12.9-6.6-12.9-21.9c0-15.2,4.1-21.8,12.9-21.8c8.9,0,12.9,7.9,12.9,20.1v2.8H308z M322.1,1099.3c-0.2-9.1-1.8-13.1-7-13.1
		c-4.2,0-7,3.1-7,13.1H322.1z"/>
	<path class="st1" d="M353.8,1093.7c1.1-6.6,5-12.3,12.5-12.3c7.8,0,12.1,4.5,12.1,12v23.5c0,3.7,0.4,6.5,1.1,7.4h-6.1l-0.7-3.6
		c-2.3,2.3-6.3,4.4-9,4.4c-6.6,0-10.9-4.2-10.9-10.8c0-10.4,11.4-15.6,19.8-17.5v-3c0-4.6-2.3-7.5-6.1-7.5c-4.5,0-6.6,4.5-7.3,8.3
		L353.8,1093.7z M372.5,1101.6c-5.3,1.6-14,5.5-14,12.1c0,4,1.8,6.5,6,6.5c3.2,0,5.9-2.2,8-4.4V1101.6z"/>
	<path class="st1" d="M390.6,1082.2h5.5v4.6c2.7-2.8,6.8-5.4,9.6-5.4c5.8,0,9.2,3.2,9.2,11v31.9H409v-31.1c0-4.9-1.5-7-4.6-7
		c-2.8,0-5.4,1.9-8,5.2v32.9h-5.8V1082.2z"/>
	<path class="st1" d="M445.5,1120.2h-0.2c-2,3-4.9,4.9-8.7,4.9c-6.6,0-12.1-5.7-12.1-21.9c0-16.2,5.5-21.8,12.1-21.8
		c3.2,0,5.8,1.9,7.8,3.9v-19.4h5.8v47.1c0,5.5,0.3,8.9,1,11.3h-5.5L445.5,1120.2z M444.5,1089.9c-1.7-1.7-3.7-3.7-6.3-3.7
		c-4.9,0-7.8,4-7.8,17c0,13,3.1,17,7.9,17c1.8,0,4.4-1.6,6.1-4V1089.9z"/>
	<path class="st1" d="M506.6,1065.8v5.3h-20.4v19.9h15.1v5.3h-15.1v22.5h21.4v5.3h-27.7v-58.4H506.6z"/>
	<path class="st1" d="M516.3,1082.2h5.5v4.6c2.8-2.8,6.8-5.4,9.6-5.4c5.8,0,9.2,3.2,9.2,11v31.9h-5.8v-31.1c0-4.9-1.5-7-4.6-7
		c-2.8,0-5.4,1.9-8,5.2v32.9h-5.8V1082.2z"/>
	<path class="st1" d="M579.4,1086.7c-0.6-0.2-1.1-0.2-1.7-0.2c-1.5,0-2.6,0.6-3.6,1.6c0.8,2.6,1.3,4.7,1.3,8.1
		c0,10.5-4.9,15-11.3,15c-1.3,0-2.6-0.3-3.9-0.3c-1,0.2-2.9,1.1-2.9,2.7c0,3,4.8,3.2,10.2,4.3c6.1,1.3,11.5,3.2,11.5,10.1
		c0,5.5-5.3,9.9-14.2,9.9c-9.5,0-14.4-3.6-14.4-9.1c0-3.7,2.3-6.8,6.1-8.4c-2.5-0.8-4.5-2.8-4.5-5.7c0-3.1,2.8-5.1,5.5-5.6
		c-3.3-2.3-5-7.7-5-12.1c0-10,4.9-15.9,12.2-15.9c2.8,0,6.3,1.2,7.7,3.9c1.3-2.3,3.6-3.9,7.1-3.9V1086.7z M561.3,1122
		c-3.4,1.5-5.7,3.4-5.7,5.8c0,3.5,2.9,5.9,9.2,5.9c6.5,0,8.7-2.6,8.7-6C573.6,1123.8,566.3,1123.1,561.3,1122z M563.9,1106.9
		c3.4,0,6.2-2.6,6.2-10.6c0-8-2.8-10.6-6.2-10.6c-3.4,0-6.1,2.6-6.1,10.6C557.8,1104.3,560.5,1106.9,563.9,1106.9z"/>
	<path class="st1" d="M588.4,1065.8h5.8v6.8h-5.8V1065.8z M588.4,1082.2h5.8v42.1h-5.8V1082.2z"/>
	<path class="st1" d="M606.1,1082.2h5.5v4.6c2.7-2.8,6.8-5.4,9.5-5.4c5.8,0,9.2,3.2,9.2,11v31.9h-5.8v-31.1c0-4.9-1.5-7-4.6-7
		c-2.8,0-5.4,1.9-8,5.2v32.9h-5.8V1082.2z"/>
	<path class="st1" d="M644.9,1104.2v2.3c0,10.3,2.4,13.7,7.9,13.7c4.4,0,6.3-4.1,7-7.9l5.5,0.7c-0.9,6.3-5.7,12.1-13.4,12.1
		c-8.8,0-12.9-6.6-12.9-21.9c0-15.2,4-21.8,12.9-21.8c8.9,0,12.9,7.9,12.9,20.1v2.8H644.9z M659,1099.3c-0.2-9.1-1.8-13.1-7-13.1
		c-4.2,0-7,3.1-7,13.1H659z"/>
	<path class="st1" d="M676.4,1104.2v2.3c0,10.3,2.3,13.7,7.9,13.7c4.5,0,6.3-4.1,7-7.9l5.5,0.7c-0.9,6.3-5.7,12.1-13.4,12.1
		c-8.8,0-12.9-6.6-12.9-21.9c0-15.2,4-21.8,12.9-21.8c8.9,0,12.9,7.9,12.9,20.1v2.8H676.4z M690.5,1099.3c-0.2-9.1-1.8-13.1-7-13.1
		c-4.2,0-7,3.1-7,13.1H690.5z"/>
	<path class="st1" d="M704.5,1082.2h5.8v5.1h0.2c3.5-5.1,6.1-5.9,10.7-5.9v5.5c-4.4,0-7.7,1.4-10.8,7.4v29.9h-5.8V1082.2z"/>
	<path class="st1" d="M727.8,1065.8h5.8v6.8h-5.8V1065.8z M727.8,1082.2h5.8v42.1h-5.8V1082.2z"/>
	<path class="st1" d="M745.5,1082.2h5.5v4.6c2.7-2.8,6.8-5.4,9.6-5.4c5.8,0,9.2,3.2,9.2,11v31.9h-5.8v-31.1c0-4.9-1.5-7-4.6-7
		c-2.8,0-5.4,1.9-8,5.2v32.9h-5.8V1082.2z"/>
	<path class="st1" d="M808.6,1086.7c-0.7-0.2-1.1-0.2-1.7-0.2c-1.5,0-2.6,0.6-3.6,1.6c0.8,2.6,1.3,4.7,1.3,8.1
		c0,10.5-4.9,15-11.3,15c-1.3,0-2.6-0.3-3.9-0.3c-1,0.2-2.9,1.1-2.9,2.7c0,3,4.8,3.2,10.2,4.3c6.1,1.3,11.5,3.2,11.5,10.1
		c0,5.5-5.3,9.9-14.2,9.9c-9.5,0-14.4-3.6-14.4-9.1c0-3.7,2.3-6.8,6.1-8.4c-2.5-0.8-4.5-2.8-4.5-5.7c0-3.1,2.8-5.1,5.5-5.6
		c-3.3-2.3-5-7.7-5-12.1c0-10,4.9-15.9,12.2-15.9c2.8,0,6.3,1.2,7.7,3.9c1.3-2.3,3.6-3.9,7.1-3.9V1086.7z M790.5,1122
		c-3.4,1.5-5.7,3.4-5.7,5.8c0,3.5,2.9,5.9,9.2,5.9c6.5,0,8.7-2.6,8.7-6C802.8,1123.8,795.5,1123.1,790.5,1122z M793.1,1106.9
		c3.4,0,6.2-2.6,6.2-10.6c0-8-2.8-10.6-6.2-10.6c-3.4,0-6.1,2.6-6.1,10.6C786.9,1104.3,789.7,1106.9,793.1,1106.9z"/>
</g>
</svg>
