<?xml version="1.0" encoding="utf-8"?>
<!-- Generator: Adobe Illustrator 22.0.0, SVG Export Plug-In . SVG Version: 6.00 Build 0)  -->
<svg version="1.1" id="Layer_1" xmlns="http://www.w3.org/2000/svg" xmlns:xlink="http://www.w3.org/1999/xlink" x="0px" y="0px"
	 viewBox="0 0 792 612" style="enable-background:new 0 0 792 612;" xml:space="preserve">
<style type="text/css">
	.st0{fill:none;}
	.st1{fill:#FFFFFF;}
	.st2{clip-path:url(#SVGID_2_);}
</style>
<g>
	<path class="st0" d="M-209.4,269.5c-14.9,8.7-28.7,17.7-41.2,26.4c1,0.9,1.8,2,2.4,3.2c12.4-8.7,26.1-17.6,40.9-26.2
		c35.2-20.6,80.7-42,132.1-54c-0.7-1.1-1.3-2.4-1.6-3.7C-128.4,227.3-174,248.8-209.4,269.5z"/>
	<path class="st0" d="M-11.1,208.2c0-0.9,0.2-1.7,0.4-2.5c-14.4,0.7-28.6,2.3-42.4,4.6c0.1,0.6,0.2,1.3,0.2,1.9
		c0,0.7-0.1,1.4-0.2,2.1c13.7-2.4,27.8-4,42.2-4.7C-11.1,209.2-11.1,208.7-11.1,208.2z"/>
	<path class="st0" d="M-42.8,158.5c-0.7,1.2-1.7,2.1-2.9,2.8c13.8,13,26.2,26.7,37,40.8c0.9-1,2.1-1.8,3.4-2.3
		C-16.3,185.5-28.8,171.6-42.8,158.5z"/>
	<path class="st1" d="M-41.5,153c16.3,0.2,33.3,1.5,50.7,4.1c-30.5-23.2-67.6-38.3-107.9-41.9C-83.2,125-69,135.6-56,146.7
		c1.5-1.3,3.5-2,5.6-2C-45.7,144.6-41.8,148.3-41.5,153z"/>
	<path class="st1" d="M-107.2,114.6c-3.4-0.2-6.9-0.3-10.4-0.3c-13.9,0-27.6,1.4-40.8,4c18,11.5,34.9,24.8,50.6,39.5
		c15.4-2.5,31.5-4.1,48.4-4.6c0.1-1.2,0.3-2.3,0.8-3.4C-73.2,137.3-89.4,125.5-107.2,114.6z"/>
	<path class="st1" d="M62.1,214.1c-1.7-0.3-3.4-0.6-5.1-0.9c-2.4,5.4-5.6,11.5-9.6,18.1c-5.5,9-8.8,18.9-13.9,31.5
		c13.9,30.7,22.1,62.1,25.2,92.7c4,0.9,7.1,4.5,7.1,8.8c0,3.9-2.5,7.2-5.9,8.4c1,27.6-2.3,54.2-9.4,78.7
		c26.9-35.3,42.9-79.4,42.9-127.2C93.3,283.9,81.9,246.2,62.1,214.1z"/>
	<path class="st1" d="M21.6,240.9c6-9.5,9.9-18,8.5-23.1c-0.6-2.1-0.2-4.7,0.6-7.5c-8-0.7-16-1-23.9-1c-0.2,1.7-0.9,3.2-1.9,4.5
		C11,222.7,16.6,231.8,21.6,240.9z"/>
	<path class="st1" d="M-53.2,210.3c13.8-2.4,28-3.9,42.4-4.6c0.4-1.4,1.1-2.6,2-3.6c-10.9-14.1-23.2-27.8-37-40.8
		c-1.4,0.8-2.9,1.3-4.7,1.3c-3.7,0-6.9-2.3-8.3-5.5c-15.8,0.5-30.9,1.9-45.4,4.1c12.7,12.2,24.5,25.4,35.4,39.5
		c1.1-0.4,2.3-0.6,3.5-0.6C-59.1,200.2-54.1,204.6-53.2,210.3z"/>
	<path class="st1" d="M-5.3,199.8c1-0.4,2.1-0.6,3.2-0.6c4,0,7.3,2.6,8.5,6.1c8.5,0,17.1,0.4,25.7,1.1c3-7.3,7.8-14.5,7.8-15.5
		c0-1.4,1.7-2.3,3.1-1.6c-8.3-9.9-17.4-19-27.4-27.1c-20-3.3-39.2-4.9-57.7-5.1c-0.2,0.5-0.5,1-0.8,1.5
		C-28.8,171.6-16.3,185.5-5.3,199.8z"/>
	<path class="st1" d="M58.8,208.9c-0.1,0.2-0.1,0.3-0.2,0.5c0.2,0,0.4,0.1,0.6,0.1C59,209.3,58.9,209.1,58.8,208.9z"/>
	<path class="st1" d="M48.1,204.1c1.4-1.9,2.7-3.5,3.9-4.8c-2.1-2.9-4.3-5.7-6.5-8.4c0.2,0.5,0.3,1.2,0.4,1.9
		C46.1,198.2,41.8,209.9,48.1,204.1z"/>
	<path class="st1" d="M-290.8,333.1c-0.3-0.2-0.6-0.4-0.9-0.6c-1.8,1.5-3.5,2.9-5.1,4.3c1.1,0.2,2.3,0.4,3.5,0.6
		C-290.3,337.8-286.7,335.7-290.8,333.1z"/>
	<path class="st1" d="M-6,330.1c-10.2,13.4-23,28.4-39.2,45.5C-82,432.8-74.9,492.1-64.6,528c22.6-5.8,43.7-15.3,62.7-27.8l-0.4-0.2
		C13.5,456.9,13.1,394.4-6,330.1z"/>
	<path class="st1" d="M-157,397.7c-58.6-6.5-109.8-48.8-109.8-48.8s-14.1,4.2-22.2,1.1c-5.8-2.3-10.7-5.1-14.2-7.7
		c-13.2,11.6-20.5,19.1-20.7,19.3l-0.4-0.4c15.6,88.1,86.3,157.4,175.1,171.1c1.8-13.4,5.1-43.4,6.5-88.6
		C-142.6,443.5-153,398.1-157,397.7z"/>
	<path class="st1" d="M-19.8,293.2C-29.7,269-42.4,244.9-58,222c-2,1.4-4.4,2.3-7.1,2.3c-4.2,0-7.9-2.2-10.1-5.5
		c-51.4,12-96.9,33.4-132.1,54c-14.8,8.7-28.5,17.5-40.9,26.2c0.5,1.1,0.7,2.3,0.7,3.5c0,5-4,9-9,9c-2.3,0-4.4-0.9-5.9-2.3
		c-9.1,6.8-17.4,13.2-24.7,19.2c1.7,0.8,3.3,1.4,3.6,1.5c8.2,0.9,15.3,5,15.3,5s56.1,25.1,124.7,19.9c0,0,6.5-1.6,15.7-4.4
		c1.4-4.8,0.3-8.1-0.8-11c-3.9-1.7-8-5.9-9.8-8.4c-7.5-10.4-14-35.6-4.3-49.3c0.5-0.7,17.6-10.8,34-5.1c16.3,5.7,12.3,29.1,9.7,45.8
		c-1.6,10.4-1.3,9.3-0.2,18.1C-80.1,333.5-51.8,328.1-19.8,293.2z"/>
	<path class="st1" d="M54.9,373.1c-4.5-0.5-8.1-4.3-8.1-8.9c0-4.2,2.9-7.8,6.9-8.7C50.8,326.6,43.2,297,30.5,268
		c-6.4,14.9-15.9,33.4-34.1,57.9C15.4,387.9,17.7,450,2.2,496.5c14.9-10.4,28.5-22.7,40.2-36.6C51.6,433.4,56,403.9,54.9,373.1z"/>
	<path class="st1" d="M-11,209.7c-14.4,0.7-28.5,2.4-42.2,4.7c-0.3,1.8-1,3.4-2,4.8c15,21.9,28,45.6,38.5,70.6c1.3-1.5,2.6-3,4-4.6
		c7.6-9.2,21.8-25.6,31.9-40.5c-5.2-9.6-11-19.1-17.4-28.4c-1.2,0.6-2.5,0.9-3.8,0.9C-6.6,217.2-10.3,213.9-11,209.7z"/>
	<path class="st1" d="M-256.5,293.6c2.3,0,4.3,0.9,5.9,2.3c12.5-8.7,26.3-17.7,41.2-26.4c35.4-20.7,81-42.2,132.6-54.3
		c-0.2-0.9-0.4-1.9-0.4-2.9c0-4,2-7.5,5-9.7c-11-14.2-23.3-27.8-36.7-40.5c-46.7,7.7-86,23-115.8,38.1c-53,26.7-86.7,57.7-94.2,64.9
		c-5.5,18.8-8.5,38.6-8.5,59.2c0,11.1,0.9,21.9,2.5,32.6c2.9-2.8,9.2-9,18.6-17.2c-2.3-2.1-3.3-3.8-2.5-4.4c1.4-1.2-0.6-0.9,3.2-0.2
		c1.1,0.2,2.4,0.5,3.7,0.8c2.2-1.9,4.6-4,7.2-6.1c-3.4-4.3-1.8-8,2.6-3.9c0.2,0.2,0.7,0.5,1.1,0.8c7.7-6.3,16.4-13.2,26.2-20.4
		c-0.4-1.1-0.7-2.2-0.7-3.5C-265.5,297.6-261.4,293.6-256.5,293.6z"/>
	<path class="st1" d="M-112.1,158.3c-15.5-14.3-32.7-27.5-51.5-39.2c-71.7,16.3-129.7,69.3-152.9,138.1c13.1-11.9,44.6-37.9,90-60.8
		C-196.9,181.4-158.1,166.3-112.1,158.3z"/>
	<g>
		<defs>
			<path id="SVGID_1_" d="M-65.1,200.2c-1.2,0-2.4,0.2-3.5,0.6c-1.3,0.4-2.5,1-3.6,1.8c-3,2.2-5,5.7-5,9.7c0,1,0.2,1.9,0.4,2.9
				c0.3,1.3,0.9,2.6,1.6,3.7c2.2,3.3,5.9,5.5,10.1,5.5c2.6,0,5.1-0.9,7.1-2.3c1.1-0.8,2-1.7,2.8-2.8c1-1.4,1.7-3,2-4.8
				c0.1-0.7,0.2-1.4,0.2-2.1c0-0.7-0.1-1.3-0.2-1.9C-54.1,204.6-59.1,200.2-65.1,200.2z"/>
		</defs>
		<clipPath id="SVGID_2_">
			<use xlink:href="#SVGID_1_"  style="overflow:visible;"/>
		</clipPath>
		<path class="st2" d="M-250.5,295.9c-1.6-1.4-3.6-2.3-5.9-2.3c-5,0-9,4-9,9c0,1.2,0.3,2.4,0.7,3.5c0.5,1.3,1.4,2.3,2.4,3.2
			c1.6,1.4,3.7,2.3,5.9,2.3c5,0,9-4,9-9c0-1.2-0.3-2.4-0.7-3.5C-248.7,297.8-249.5,296.7-250.5,295.9z"/>
		<path class="st2" d="M-2.1,199.2c-1.1,0-2.2,0.2-3.2,0.6c-1.3,0.5-2.4,1.3-3.4,2.3c-0.9,1-1.6,2.2-2,3.6c-0.2,0.8-0.4,1.6-0.4,2.5
			c0,0.5,0.1,1,0.2,1.5c0.7,4.3,4.4,7.5,8.8,7.5c1.4,0,2.7-0.3,3.8-0.9c1.2-0.6,2.3-1.4,3.2-2.5c1-1.3,1.7-2.8,1.9-4.5
			c0-0.4,0.1-0.7,0.1-1.1c0-1-0.2-2-0.5-2.9C5.1,201.7,1.8,199.2-2.1,199.2z"/>
		<path class="st2" d="M57.8,355.4c-0.6-0.1-1.3-0.2-1.9-0.2c-0.7,0-1.4,0.1-2.1,0.3c-3.9,1-6.9,4.5-6.9,8.7c0,4.6,3.5,8.4,8.1,8.9
			c0.3,0,0.6,0.1,0.9,0.1c1.1,0,2.1-0.2,3.1-0.6c3.4-1.3,5.9-4.5,5.9-8.4C64.8,359.9,61.8,356.3,57.8,355.4z"/>
		<path class="st2" d="M-50.4,144.6c-2.1,0-4.1,0.8-5.6,2c-1.1,0.9-1.9,1.9-2.5,3.2c-0.5,1-0.8,2.2-0.8,3.4c0,0.1,0,0.3,0,0.4
			c0,1.3,0.3,2.5,0.7,3.6c1.4,3.2,4.6,5.5,8.3,5.5c1.7,0,3.3-0.5,4.7-1.3c1.2-0.7,2.2-1.7,2.9-2.8c0.3-0.5,0.6-0.9,0.8-1.5
			c0.4-1,0.7-2.2,0.7-3.4c0-0.2,0-0.4-0.1-0.6C-41.8,148.3-45.7,144.6-50.4,144.6z"/>
	</g>
</g>
<g>
	<path class="st1" d="M9.3,125.6C-27,102.2-70.1,89.5-114.8,89.5c-97.4,0-180,59.6-207.7,141.6c-4.4,13.1,1,0.1,1,0.1l0.1-0.1
		c34.7-76.2,114.8-125.4,204-125.4c43.9,0,90.4,15.2,126.7,37.7C9.3,143.4,6.1,135.1,9.3,125.6z"/>
	<path class="st1" d="M26.6,108.3C-12.4,78.8-63,62.7-117,62.7c-124.7,0-225.9,95-225.9,212.2c0,0,21.2-191.8,223.1-191.8
		c48.8,0,93.9,14.5,130.8,39.2C14.5,116,20,111.1,26.6,108.3z"/>
</g>
<g>
	<path class="st1" d="M12.5,136.7c0-14.4,11.7-26.2,26.2-26.2c14.4,0,26.2,11.7,26.2,26.2c0,14.4-11.7,26.2-26.2,26.2
		C24.2,162.9,12.5,151.2,12.5,136.7z"/>
</g>
<rect x="-396.2" y="22.3" class="st0" width="546.2" height="576.1"/>
<g>
	<g>
		<g>
			<path class="st1" d="M573.4,304v-84.8c0-13.8-9-15-23.8-15v-3.7h64c45.4,0,93.6,6.6,93.6,61.3c0,54.5-50.6,60.9-93.6,60.9h-40
				L573.4,304z M597.8,300.1c0,13.4,2.2,15.4,15.9,15.4c47.1,0,66.5-16.9,66.5-53.8c0-33.8-14.5-54.1-66.5-54.1
				c-13.7,0-15.9,1.1-15.9,15.4V300.1z"/>
			<path class="st1" d="M284.1,219.2v61.1c0,25.1-5.5,44.2-62.4,44.2c-56.7,0-65.4-18.4-65.4-44.2v-61.1c0-13.8-8.8-15-23.8-15v-3.7
				H180v3.7c0,0,0.6,1.3,0.6,15v61.1c0,18.7,6.6,37.1,42.2,37.1c39.4,0,45.7-15.2,45.7-37.1v-61.1c0-13.8-9-15-23.8-15v-3.7h39.8
				L284.1,219.2z"/>
			<path class="st1" d="M389.4,316.3c-59.9,0-67.6-36.5-67.6-60.2c0-18.9,3.6-50.3,47.6-50.3c33.9,0,44.9,16.5,48.4,26.8h6.8
				l-2.5-28.8c-12-2.2-30.7-5.1-52.5-5.1c-58.6,0-75,25-75,58.9c0,39.1,26.3,67,81,67c15.9,0,28.7-1,40-3.1v-7.6
				C409.4,315.1,401.1,316.3,389.4,316.3z"/>
			<path class="st1" d="M514.4,256.8c-25-9.4-59.2-14.7-59.2-31c0-12.1,17-20,36.2-20c30.7,0,42.2,11.4,44.8,21.1h7.2l-2-25.1
				c-12.9-1.6-25.3-3.1-44.6-3.1c-36.2,0-64.7,9-64.7,31c0,11.7,6,18.3,18.7,24.6c26.7,13,74.4,19.1,74.4,38.9
				c0,12.7-16.4,23.1-41.7,23.1c-2.7,0-5.2-0.1-7.6-0.3c-7.6,0.3-24.6-1.4-37.8-3.3v9c10.2,1.1,27.6,2.8,43.1,2.8
				c39.4,0,71-11,71-34.3C552.3,272.8,537.1,265.3,514.4,256.8z"/>
		</g>
	</g>
	<g>
		<path class="st1" d="M910.6,316.7c-8.7,2.8-22.8,7-49.2,7c-55.6,0-75.6-24.2-75.6-65.9c0-33.7,14.3-61.1,71.5-61.1
			c22.8,0,39.5,2.8,51.3,5.5l1.5,30.9h-7.4c-1-9.4-15.1-27.6-42.8-27.6c-37.7,0-43.8,29-43.8,52.2c0,29.2,14.1,55.5,49.7,55.5
			c24.3,0,36.9-5.6,44.8-9.4V316.7z"/>
		<path class="st1" d="M1021.4,228.8c-2-10-8.7-23.1-35.9-23.1c-20.8,0-32.3,7.6-32.3,17.2c0,18.1,43.6,26.6,62.8,37.4
			c12.6,7,21.5,15.2,21.5,27.7c0,26.1-27.9,35.7-66.9,35.7c-20.2,0-36.9-3.3-45.6-5l-1.5-30.5h7.4c3.1,9.4,9,26.6,42.5,26.6
			c22.3,0,34.9-8.7,34.9-20c0-18.1-30-24.8-53.6-35.7c-15.4-7.2-27.9-16.1-27.9-30.9c0-20,21.3-31.5,58.7-31.5
			c17.2,0,34.1,2.4,41.8,3.3l1.5,28.7H1021.4z"/>
		<path class="st1" d="M1038,317.3c17.9,0,21.8-2.8,21.8-17.2v-79.6c0-14.4-3.8-17.2-21.8-17.2v-4.6h120.7l1.5,26.8h-7.4
			c-1-10-4.4-18.3-33.1-18.3h-16.4c-12.5,0-15.4,3-15.4,13.3v32.7h33.6c16.7,0,19.2-2.6,19.2-14.8h6.9v38.3h-6.9
			c0-11.1-2.6-15-19.2-15H1088v38.3c0,12.4,2,13.3,15.4,13.3h23.6c22,0,29.2-6.7,30-18.3h7.4l-1.5,26.8H1038V317.3z"/>
	</g>
</g>
<g>
	<path class="st1" d="M167.4,371.7c-0.8-9.6-3.9-13.7-9-13.7c-7.7,0-11,6.8-11,25.7c0,19,3.4,25.7,11,25.7c6.2,0,9.7-4.2,9.9-15.5
		h6.6c-0.2,13.5-6.1,21.1-16.4,21.1c-10.9,0-17.6-8.3-17.6-31.3c0-23,6.7-31.3,17.6-31.3c9,0,14.6,6.2,15.6,19.2H167.4z"/>
	<path class="st1" d="M195.4,369.5c9.2,0,13.4,6.9,13.4,22.8c0,15.9-4.2,22.8-13.4,22.8c-9.2,0-13.4-6.9-13.4-22.8
		C182,376.4,186.2,369.5,195.4,369.5z M195.4,410c5.1,0,7.3-3.2,7.3-17.7c0-14.5-2.2-17.7-7.3-17.7c-5.1,0-7.3,3.2-7.3,17.7
		C188.1,406.8,190.3,410,195.4,410z"/>
	<path class="st1" d="M218.6,414.2v-43.9h5.6v4.8c2.4-2.8,6-5.6,10.2-5.6c3.5,0,6.8,2.3,7.9,5.6c2.4-2.7,5.9-5.6,10.2-5.6
		c5.7,0,8.9,3.9,8.9,10.1v34.6h-6.1v-33.7c0-4.6-1.4-5.9-4.6-5.9c-3.7,0-5.8,2.6-7.7,4.6v35.1h-6.1v-33.7c0-4.6-1.6-5.9-4.8-5.9
		c-3.7,0-5.8,2.6-7.4,4.6v35.1H218.6z"/>
	<path class="st1" d="M279.8,374.6h0.2c2-3.1,5.1-5.1,8.9-5.1c6.9,0,12.6,5.9,12.6,22.8c0,16.9-5.7,22.8-12.6,22.8
		c-3.3,0-6.1-2-8.1-4.1v17.5h-6.1v-58.2h5.1V374.6z M280.8,406.1c1.8,1.8,3.9,3.9,6.6,3.9c5.1,0,8.1-4.2,8.1-17.7
		c0-13.5-3.2-17.7-8.3-17.7c-1.9,0-4.6,1.7-6.4,4.2V406.1z"/>
	<path class="st1" d="M336.9,414.2h-5.7v-4.8c-2.9,3-7.1,5.7-10,5.7c-6.1,0-9.6-3.4-9.6-11.5v-33.2h6.1v32.4c0,5.1,1.5,7.3,4.8,7.3
		c3,0,5.6-2,8.4-5.4v-34.3h6.1V414.2z"/>
	<path class="st1" d="M343.7,370.4h5.9v-14.7h6.1v14.7h8.1v5.1h-8.1v30.7c0,2.5,1.4,4.4,4.4,4.4c1.2,0,2.7-0.5,3.7-0.8v4.5
		c-1.7,0.5-3.2,0.9-5.7,0.9c-5.7,0-8.4-2.7-8.4-9.5v-30.2h-5.9V370.4z"/>
	<path class="st1" d="M375.5,393.3v2.4c0,10.7,2.5,14.3,8.2,14.3c4.6,0,6.6-4.3,7.3-8.3l5.7,0.7c-0.9,6.6-5.9,12.7-13.9,12.7
		c-9.2,0-13.4-6.9-13.4-22.8c0-15.9,4.2-22.8,13.4-22.8c9.3,0,13.4,8.3,13.4,20.9v2.9H375.5z M390.2,388.3
		c-0.2-9.5-1.9-13.7-7.3-13.7c-4.4,0-7.2,3.2-7.3,13.7H390.2z"/>
	<path class="st1" d="M404.8,370.4h6.1v5.3h0.2c3.6-5.3,6.3-6.2,11.1-6.2v5.7c-4.6,0-8,1.5-11.3,7.8v31.2h-6.1V370.4z"/>
	<path class="st1" d="M468.8,369c-0.5-6.2-3-11-9.4-11c-5.1,0-8.3,3.4-8.3,8c0,13.7,24.5,13.9,24.5,33.5c0,9.7-5.6,15.5-15.6,15.5
		c-9.5,0-15.3-7-15.4-17.2h6.1c0.2,7.2,3.6,11.6,10,11.6c5.5,0,9-3.5,9-10c0-13.8-24.5-15.4-24.5-32.8c0-8.6,5.9-14.2,14.7-14.2
		c8.8,0,14.5,5.9,15,16.5H468.8z"/>
	<path class="st1" d="M502.2,383.4c-0.6-6.6-3.2-8.8-6.9-8.8c-5.1,0-7.3,3.2-7.3,17.7c0,14.5,2.2,17.7,7.3,17.7c3.9,0,6.1-2,7.1-9.6
		h5.9c-1,8.6-5.1,14.7-13,14.7c-9.2,0-13.4-6.9-13.4-22.8c0-15.9,4.2-22.8,13.4-22.8c7.9,0,11.6,5.2,12.8,13.8H502.2z"/>
	<path class="st1" d="M518,353.3h6.1v7.1H518V353.3z M518,370.4h6.1v43.9H518V370.4z"/>
	<path class="st1" d="M539.5,393.3v2.4c0,10.7,2.4,14.3,8.2,14.3c4.6,0,6.6-4.3,7.3-8.3l5.7,0.7c-0.9,6.6-5.9,12.7-13.9,12.7
		c-9.2,0-13.4-6.9-13.4-22.8c0-15.9,4.2-22.8,13.4-22.8c9.3,0,13.4,8.3,13.4,20.9v2.9H539.5z M554.1,388.3
		c-0.2-9.5-1.9-13.7-7.3-13.7c-4.4,0-7.3,3.2-7.3,13.7H554.1z"/>
	<path class="st1" d="M569.3,370.4h5.7v4.8c2.9-3,7.1-5.6,9.9-5.6c6.1,0,9.6,3.4,9.6,11.5v33.2h-6.1v-32.4c0-5.1-1.5-7.2-4.8-7.2
		c-2.9,0-5.6,2-8.3,5.4v34.2h-6.1V370.4z"/>
	<path class="st1" d="M624,383.4c-0.6-6.6-3.2-8.8-6.9-8.8c-5.1,0-7.3,3.2-7.3,17.7c0,14.5,2.2,17.7,7.3,17.7c3.9,0,6.1-2,7.1-9.6
		h5.9c-1,8.6-5.1,14.7-13,14.7c-9.2,0-13.4-6.9-13.4-22.8c0-15.9,4.2-22.8,13.4-22.8c7.9,0,11.6,5.2,12.8,13.8H624z"/>
	<path class="st1" d="M642.5,393.3v2.4c0,10.7,2.5,14.3,8.2,14.3c4.6,0,6.6-4.3,7.3-8.3l5.7,0.7c-0.9,6.6-5.9,12.7-13.9,12.7
		c-9.2,0-13.4-6.9-13.4-22.8c0-15.9,4.2-22.8,13.4-22.8c9.3,0,13.4,8.3,13.4,20.9v2.9H642.5z M657.2,388.3
		c-0.2-9.5-1.9-13.7-7.3-13.7c-4.4,0-7.3,3.2-7.3,13.7H657.2z"/>
	<path class="st1" d="M690.3,382.3c1.2-6.9,5.2-12.8,13-12.8c8.1,0,12.6,4.7,12.6,12.5v24.5c0,3.9,0.4,6.8,1.1,7.8h-6.3l-0.8-3.7
		c-2.4,2.4-6.6,4.6-9.4,4.6c-6.8,0-11.4-4.4-11.4-11.3c0-10.8,11.9-16.3,20.7-18.2v-3.1c0-4.8-2.4-7.8-6.3-7.8
		c-4.6,0-6.9,4.6-7.6,8.6L690.3,382.3z M709.8,390.6c-5.6,1.7-14.6,5.7-14.6,12.6c0,4.1,1.9,6.8,6.2,6.8c3.3,0,6.2-2.3,8.3-4.6
		V390.6z"/>
	<path class="st1" d="M728.6,370.4h5.7v4.8c2.9-3,7.1-5.6,10-5.6c6.1,0,9.6,3.4,9.6,11.5v33.2h-6.1v-32.4c0-5.1-1.5-7.2-4.8-7.2
		c-3,0-5.6,2-8.3,5.4v34.2h-6.1V370.4z"/>
	<path class="st1" d="M785.9,410h-0.2c-2.1,3.1-5.2,5.1-9,5.1c-6.9,0-12.6-5.9-12.6-22.8c0-16.9,5.7-22.8,12.6-22.8
		c3.3,0,6.1,2,8.1,4v-20.2h6.1v49.1c0,5.7,0.3,9.3,1,11.8h-5.7L785.9,410z M784.8,378.5c-1.8-1.8-3.9-3.9-6.6-3.9
		c-5.1,0-8.1,4.2-8.1,17.7c0,13.5,3.2,17.7,8.3,17.7c1.9,0,4.5-1.7,6.4-4.2V378.5z"/>
	<path class="st1" d="M849.6,353.3v5.6h-21.3v20.8H844v5.6h-15.7v23.4h22.3v5.6h-28.8v-60.9H849.6z"/>
	<path class="st1" d="M859.7,370.4h5.7v4.8c2.9-3,7.1-5.6,10-5.6c6.1,0,9.6,3.4,9.6,11.5v33.2h-6.1v-32.4c0-5.1-1.5-7.2-4.8-7.2
		c-3,0-5.7,2-8.4,5.4v34.2h-6.1V370.4z"/>
	<path class="st1" d="M925.5,375.1c-0.7-0.2-1.2-0.2-1.8-0.2c-1.6,0-2.7,0.7-3.8,1.7c0.8,2.7,1.3,4.9,1.3,8.4
		c0,11-5.1,15.7-11.8,15.7c-1.4,0-2.7-0.3-4-0.3c-1,0.3-3,1.2-3,2.9c0,3.1,5,3.3,10.6,4.5c6.3,1.3,12,3.4,12,10.5
		c0,5.7-5.6,10.3-14.9,10.3c-10,0-15-3.7-15-9.5c0-3.9,2.4-7.1,6.4-8.8c-2.6-0.8-4.7-3-4.7-5.9c0-3.3,2.9-5.3,5.7-5.8
		c-3.5-2.4-5.2-8-5.2-12.6c0-10.5,5.1-16.5,12.7-16.5c2.9,0,6.6,1.3,8,4c1.3-2.4,3.7-4,7.4-4V375.1z M906.6,411.9
		c-3.5,1.5-5.9,3.5-5.9,6c0,3.6,3,6.2,9.6,6.2c6.7,0,9.1-2.7,9.1-6.2C919.4,413.7,911.8,413,906.6,411.9z M909.3,396.2
		c3.6,0,6.4-2.7,6.4-11c0-8.4-2.9-11.1-6.4-11.1c-3.5,0-6.4,2.7-6.4,11.1C902.9,393.5,905.7,396.2,909.3,396.2z"/>
	<path class="st1" d="M934.8,353.3h6.1v7.1h-6.1V353.3z M934.8,370.4h6.1v43.9h-6.1V370.4z"/>
	<path class="st1" d="M953.3,370.4h5.7v4.8c2.9-3,7.1-5.6,10-5.6c6.1,0,9.6,3.4,9.6,11.5v33.2h-6.1v-32.4c0-5.1-1.5-7.2-4.8-7.2
		c-3,0-5.7,2-8.4,5.4v34.2h-6.1V370.4z"/>
	<path class="st1" d="M993.7,393.3v2.4c0,10.7,2.5,14.3,8.2,14.3c4.6,0,6.6-4.3,7.3-8.3l5.7,0.7c-0.9,6.6-5.9,12.7-13.9,12.7
		c-9.2,0-13.4-6.9-13.4-22.8c0-15.9,4.2-22.8,13.4-22.8c9.3,0,13.4,8.3,13.4,20.9v2.9H993.7z M1008.4,388.3
		c-0.2-9.5-1.9-13.7-7.3-13.7c-4.4,0-7.3,3.2-7.3,13.7H1008.4z"/>
	<path class="st1" d="M1026.5,393.3v2.4c0,10.7,2.4,14.3,8.2,14.3c4.6,0,6.6-4.3,7.3-8.3l5.7,0.7c-0.9,6.6-5.9,12.7-13.9,12.7
		c-9.2,0-13.4-6.9-13.4-22.8c0-15.9,4.2-22.8,13.4-22.8c9.3,0,13.4,8.3,13.4,20.9v2.9H1026.5z M1041.2,388.3
		c-0.2-9.5-1.9-13.7-7.3-13.7c-4.4,0-7.3,3.2-7.3,13.7H1041.2z"/>
	<path class="st1" d="M1055.9,370.4h6.1v5.3h0.2c3.6-5.3,6.3-6.2,11.1-6.2v5.7c-4.6,0-8,1.5-11.3,7.8v31.2h-6.1V370.4z"/>
	<path class="st1" d="M1080.1,353.3h6.1v7.1h-6.1V353.3z M1080.1,370.4h6.1v43.9h-6.1V370.4z"/>
	<path class="st1" d="M1098.6,370.4h5.7v4.8c2.9-3,7.1-5.6,10-5.6c6.1,0,9.6,3.4,9.6,11.5v33.2h-6.1v-32.4c0-5.1-1.5-7.2-4.8-7.2
		c-2.9,0-5.6,2-8.4,5.4v34.2h-6.1V370.4z"/>
	<path class="st1" d="M1164.4,375.1c-0.7-0.2-1.2-0.2-1.8-0.2c-1.6,0-2.7,0.7-3.8,1.7c0.8,2.7,1.4,4.9,1.4,8.4
		c0,11-5.1,15.7-11.8,15.7c-1.4,0-2.7-0.3-4.1-0.3c-1,0.3-3,1.2-3,2.9c0,3.1,5,3.3,10.6,4.5c6.3,1.3,12,3.4,12,10.5
		c0,5.7-5.6,10.3-14.8,10.3c-9.9,0-15-3.7-15-9.5c0-3.9,2.4-7.1,6.4-8.8c-2.6-0.8-4.7-3-4.7-5.9c0-3.3,2.9-5.3,5.7-5.8
		c-3.5-2.4-5.2-8-5.2-12.6c0-10.5,5.1-16.5,12.7-16.5c2.9,0,6.6,1.3,8,4c1.4-2.4,3.7-4,7.4-4V375.1z M1145.5,411.9
		c-3.5,1.5-5.9,3.5-5.9,6c0,3.6,3,6.2,9.6,6.2c6.7,0,9.1-2.7,9.1-6.2C1158.3,413.7,1150.7,413,1145.5,411.9z M1148.2,396.2
		c3.5,0,6.4-2.7,6.4-11c0-8.4-2.9-11.1-6.4-11.1c-3.5,0-6.4,2.7-6.4,11.1C1141.8,393.5,1144.6,396.2,1148.2,396.2z"/>
</g>
</svg>
