<svg id="Layer_1" data-name="Layer 1" xmlns="http://www.w3.org/2000/svg" viewBox="0 0 191.58 36.04"><defs><style>.cls-1{fill:#f36c33;}.cls-2{fill:#fff;}</style></defs><title>Rally_R_OrangeWhite_Lg_RGB</title><path class="cls-1" d="M96.22,48.18l13.41,23a1.65,1.65,0,0,0,1.43.86h2.09a1.76,1.76,0,0,0,1.42-2.65L96.22,36.87a1.62,1.62,0,0,0-2.85,0L75,69.37A1.76,1.76,0,0,0,76.44,72h2.09A1.65,1.65,0,0,0,80,71.16l13.41-23A1.61,1.61,0,0,1,96.22,48.18Z" transform="translate(-35.94 -36.02)"/><path class="cls-1" d="M96.22,67.27l2.07,3.89a1.65,1.65,0,0,0,1.43.86h2.09a1.75,1.75,0,0,0,1.42-2.65L96.22,57a1.62,1.62,0,0,0-2.85,0l-7,12.42A1.75,1.75,0,0,0,87.78,72h2.09a1.65,1.65,0,0,0,1.43-.86l2.07-3.89A1.62,1.62,0,0,1,96.22,67.27Z" transform="translate(-35.94 -36.02)"/><path class="cls-2" d="M35.94,36.94a.84.84,0,0,1,.84-.84H56.71c5.73,0,14.14,1.24,14.14,10,0,7-6.07,9.38-10.42,9.82a.51.51,0,0,0-.35.82L70.4,70.72a.83.83,0,0,1-.67,1.33h-3.3a.86.86,0,0,1-.68-.34L54.68,56.48a.83.83,0,0,0-.68-.35H41.13a.84.84,0,0,0-.84.84V71.21a.84.84,0,0,1-.84.84H36.78a.83.83,0,0,1-.84-.84Zm4.35,14.5a.83.83,0,0,0,.84.83H55.72c6.28,0,11-.89,11-6.18S62,40,55.72,40H41.13a.84.84,0,0,0-.84.84Z" transform="translate(-35.94 -36.02)"/><path class="cls-2" d="M121.6,36.1h.53A1.92,1.92,0,0,1,124,38V66.29A1.91,1.91,0,0,0,126,68.2h23.57a1.9,1.9,0,0,1,1.91,1.91v0a1.9,1.9,0,0,1-1.91,1.91H121.6a1.9,1.9,0,0,1-1.91-1.91V38A1.91,1.91,0,0,1,121.6,36.1Z" transform="translate(-35.94 -36.02)"/><path class="cls-2" d="M159.05,36.1h.53A1.92,1.92,0,0,1,161.49,38V66.29a1.91,1.91,0,0,0,1.91,1.91H188a1.9,1.9,0,0,1,1.91,1.91v0A1.9,1.9,0,0,1,188,72.05H159.05a1.9,1.9,0,0,1-1.91-1.91V38A1.91,1.91,0,0,1,159.05,36.1Z" transform="translate(-35.94 -36.02)"/><path class="cls-2" d="M196.88,57,181.54,39.26A1.91,1.91,0,0,1,183,36.1h.63a1.92,1.92,0,0,1,1.45.67l13,15.19a1.91,1.91,0,0,0,2.9,0l13-15.19a1.92,1.92,0,0,1,1.45-.67h.63a1.91,1.91,0,0,1,1.44,3.16L202.16,57a1.89,1.89,0,0,0-.46,1.25V70.14a1.91,1.91,0,0,1-1.91,1.91h-.54a1.91,1.91,0,0,1-1.91-1.91V58.23A1.89,1.89,0,0,0,196.88,57Z" transform="translate(-35.94 -36.02)"/><path class="cls-2" d="M223.53,37.47h1.59c.5,0,.95.18.95.79a.71.71,0,0,1-.57.71h0c.41.07.5.33.52.81a1.61,1.61,0,0,0,.1.61h-.33a1.51,1.51,0,0,1-.08-.6c0-.52-.2-.69-.7-.69h-1.18V40.4h-.3Zm.3,1.36h1.28c.33,0,.63-.12.63-.57s-.32-.51-.6-.51h-1.31Z" transform="translate(-35.94 -36.02)"/><path class="cls-2" d="M224.73,41.64a2.78,2.78,0,1,1,2.78-2.78A2.78,2.78,0,0,1,224.73,41.64Zm0-5.27a2.49,2.49,0,1,0,2.49,2.49A2.48,2.48,0,0,0,224.73,36.37Z" transform="translate(-35.94 -36.02)"/></svg>