<?xml version="1.0" encoding="utf-8"?>
<!-- Generator: Adobe Illustrator 16.0.0, SVG Export Plug-In . SVG Version: 6.00 Build 0)  -->
<!DOCTYPE svg PUBLIC "-//W3C//DTD SVG 1.1//EN" "http://www.w3.org/Graphics/SVG/1.1/DTD/svg11.dtd">
<svg version="1.1" id="Layer_1" xmlns="http://www.w3.org/2000/svg" xmlns:xlink="http://www.w3.org/1999/xlink" x="0px" y="0px"
	 width="219.5px" height="324px" viewBox="0 0 219.5 324" enable-background="new 0 0 219.5 324" xml:space="preserve">
<g>
	<polygon fill="#80B786" points="-434.26,168.801 -338.312,278.324 -376.115,321.479 -472.051,211.948 -479.899,220.905 
		-487.509,212.21 -583.217,321.479 -621.019,278.324 -525.161,168.881 -519.559,175.329 -374.942,10.219 -367.575,48.145 
		-335.154,55.647 	"/>
	<g>
		<polygon fill="#5F6C80" points="-587.641,13.409 -479.896,130.043 -519.686,175.473 -624.042,49.811 		"/>
	</g>
	<path fill="#80B786" d="M-152.995,221.706l89.412,54.04l-37.164,44.566l-209.821-120.771l20.165-24.056l20.485-24.448l12.768,7.716
		h99.668c25.678,0,46.499-20.821,46.499-46.5c0-25.679-20.821-46.499-46.499-46.499h-90.041v46.499h-63.045V65.755l63.045-63.044
		h90.041c60.503,0,109.544,49.041,109.544,109.543C-47.938,171.253-94.572,219.352-152.995,221.706z"/>
	<path fill="#5F6C80" d="M-248.864,235.057l-3.195,84.654h-54.081l-4.43-120.168L-248.864,235.057z"/>
	<g>
		
			<linearGradient id="SVGID_1_" gradientUnits="userSpaceOnUse" x1="-602.5396" y1="25.2607" x2="-507.1653" y2="132.8795" gradientTransform="matrix(1 0 0 -1 0 325)">
			<stop  offset="0" style="stop-color:#FFFFFF;stop-opacity:0.1"/>
			<stop  offset="0.1256" style="stop-color:#FBFBFB;stop-opacity:0.1251"/>
			<stop  offset="0.2559" style="stop-color:#EEEFF0;stop-opacity:0.1512"/>
			<stop  offset="0.3883" style="stop-color:#DADBDD;stop-opacity:0.1777"/>
			<stop  offset="0.5222" style="stop-color:#BDBEC2;stop-opacity:0.2044"/>
			<stop  offset="0.6573" style="stop-color:#979A9F;stop-opacity:0.2315"/>
			<stop  offset="0.7934" style="stop-color:#696E75;stop-opacity:0.2587"/>
			<stop  offset="0.9278" style="stop-color:#343A44;stop-opacity:0.2856"/>
			<stop  offset="1" style="stop-color:#141B27;stop-opacity:0.3"/>
		</linearGradient>
		<polygon fill="url(#SVGID_1_)" points="-621.019,278.324 -583.214,321.479 -487.511,212.208 -525.161,168.882 		"/>
	</g>
	<g>
		
			<linearGradient id="SVGID_2_" gradientUnits="userSpaceOnUse" x1="-356.1602" y1="27.2607" x2="-453.4682" y2="131.6576" gradientTransform="matrix(1 0 0 -1 0 325)">
			<stop  offset="0" style="stop-color:#FFFFFF;stop-opacity:0.1"/>
			<stop  offset="0.1256" style="stop-color:#FBFBFB;stop-opacity:0.1251"/>
			<stop  offset="0.2559" style="stop-color:#EEEFF0;stop-opacity:0.1512"/>
			<stop  offset="0.3883" style="stop-color:#DADBDD;stop-opacity:0.1777"/>
			<stop  offset="0.5222" style="stop-color:#BDBEC2;stop-opacity:0.2044"/>
			<stop  offset="0.6573" style="stop-color:#979A9F;stop-opacity:0.2315"/>
			<stop  offset="0.7934" style="stop-color:#696E75;stop-opacity:0.2587"/>
			<stop  offset="0.9278" style="stop-color:#343A44;stop-opacity:0.2856"/>
			<stop  offset="1" style="stop-color:#141B27;stop-opacity:0.3"/>
		</linearGradient>
		<polygon fill="url(#SVGID_2_)" points="-376.115,321.479 -338.309,278.324 -434.26,168.801 -472.05,211.945 		"/>
	</g>
	
		<linearGradient id="SVGID_3_" gradientUnits="userSpaceOnUse" x1="-130.2417" y1="209.8203" x2="-185.0184" y2="121.534" gradientTransform="matrix(1 0 0 -1 0 325)">
		<stop  offset="0" style="stop-color:#FFFFFF;stop-opacity:0.1"/>
		<stop  offset="0.1256" style="stop-color:#FBFBFB;stop-opacity:0.1251"/>
		<stop  offset="0.2559" style="stop-color:#EEEFF0;stop-opacity:0.1512"/>
		<stop  offset="0.3883" style="stop-color:#DADBDD;stop-opacity:0.1777"/>
		<stop  offset="0.5222" style="stop-color:#BDBEC2;stop-opacity:0.2044"/>
		<stop  offset="0.6573" style="stop-color:#979A9F;stop-opacity:0.2315"/>
		<stop  offset="0.7934" style="stop-color:#696E75;stop-opacity:0.2587"/>
		<stop  offset="0.9278" style="stop-color:#343A44;stop-opacity:0.2856"/>
		<stop  offset="1" style="stop-color:#141B27;stop-opacity:0.3"/>
	</linearGradient>
	<path fill="url(#SVGID_3_)" d="M-152.993,221.706c58.421-2.354,105.055-50.456,105.055-109.453h-63.045
		c0,25.679-20.819,46.498-46.499,46.498h-99.67"/>
	
		<linearGradient id="SVGID_4_" gradientUnits="userSpaceOnUse" x1="-111.0557" y1="267.5244" x2="-247.0438" y2="267.5243" gradientTransform="matrix(1 0 0 -1 0 325)">
		<stop  offset="0" style="stop-color:#FFFFFF;stop-opacity:0.1"/>
		<stop  offset="0.1256" style="stop-color:#FBFBFB;stop-opacity:0.1251"/>
		<stop  offset="0.2559" style="stop-color:#EEEFF0;stop-opacity:0.1512"/>
		<stop  offset="0.3883" style="stop-color:#DADBDD;stop-opacity:0.1777"/>
		<stop  offset="0.5222" style="stop-color:#BDBEC2;stop-opacity:0.2044"/>
		<stop  offset="0.6573" style="stop-color:#979A9F;stop-opacity:0.2315"/>
		<stop  offset="0.7934" style="stop-color:#696E75;stop-opacity:0.2587"/>
		<stop  offset="0.9278" style="stop-color:#343A44;stop-opacity:0.2856"/>
		<stop  offset="1" style="stop-color:#141B27;stop-opacity:0.3"/>
	</linearGradient>
	<path fill="url(#SVGID_4_)" d="M-110.983,112.253c0-25.68-20.819-46.5-46.499-46.5h-90.035l-0.008-63.044h90.043
		c60.503,0,109.544,49.042,109.544,109.544"/>
	<g>
		
			<linearGradient id="SVGID_5_" gradientUnits="userSpaceOnUse" x1="-307.3672" y1="-3.1187" x2="-267.4129" y2="101.9226" gradientTransform="matrix(1 0 0 -1 0 325)">
			<stop  offset="0" style="stop-color:#FFFFFF;stop-opacity:0.1"/>
			<stop  offset="0.1256" style="stop-color:#FBFBFB;stop-opacity:0.1251"/>
			<stop  offset="0.2559" style="stop-color:#EEEFF0;stop-opacity:0.1512"/>
			<stop  offset="0.3883" style="stop-color:#DADBDD;stop-opacity:0.1777"/>
			<stop  offset="0.5222" style="stop-color:#BDBEC2;stop-opacity:0.2044"/>
			<stop  offset="0.6573" style="stop-color:#979A9F;stop-opacity:0.2315"/>
			<stop  offset="0.7934" style="stop-color:#696E75;stop-opacity:0.2587"/>
			<stop  offset="0.9278" style="stop-color:#343A44;stop-opacity:0.2856"/>
			<stop  offset="1" style="stop-color:#141B27;stop-opacity:0.3"/>
		</linearGradient>
		<polygon fill="url(#SVGID_5_)" points="-252.06,319.711 -306.141,319.711 -310.57,199.543 -248.863,235.061 		"/>
	</g>
	<g>
		
			<linearGradient id="SVGID_6_" gradientUnits="userSpaceOnUse" x1="-604.0107" y1="294.4736" x2="-499.6149" y2="172.0343" gradientTransform="matrix(1 0 0 -1 0 325)">
			<stop  offset="0" style="stop-color:#FFFFFF;stop-opacity:0.1"/>
			<stop  offset="0.1256" style="stop-color:#FBFBFB;stop-opacity:0.1251"/>
			<stop  offset="0.2559" style="stop-color:#EEEFF0;stop-opacity:0.1512"/>
			<stop  offset="0.3883" style="stop-color:#DADBDD;stop-opacity:0.1777"/>
			<stop  offset="0.5222" style="stop-color:#BDBEC2;stop-opacity:0.2044"/>
			<stop  offset="0.6573" style="stop-color:#979A9F;stop-opacity:0.2315"/>
			<stop  offset="0.7934" style="stop-color:#696E75;stop-opacity:0.2587"/>
			<stop  offset="0.9278" style="stop-color:#343A44;stop-opacity:0.2856"/>
			<stop  offset="1" style="stop-color:#141B27;stop-opacity:0.3"/>
		</linearGradient>
		<polygon fill="url(#SVGID_6_)" points="-587.639,13.406 -624.042,49.811 -519.686,175.475 -479.896,130.043 		"/>
	</g>
	<g>
		<path fill="#FFFFFF" d="M-579.104,49.746c-1.514,1.365-2.723,2.253-4.069,3.062c-0.398,0.227-0.313,0.617,0.286,0.613
			c2.979-0.408,5.822,0.447,8.286,3.182c3.659,4.064,3.154,9.004-1.282,12.998l-10.572,9.518c-0.22,0.201-0.431,0.189-0.63-0.033
			l-1.565-1.737c-0.199-0.221-0.189-0.432,0.034-0.631l10.387-9.352c3.215-2.896,3.673-6.253,1.21-8.989
			c-3.827-4.249-8.698-2.673-12.655,0.887l-8.094,7.289c-0.223,0.199-0.433,0.188-0.632-0.033l-1.564-1.737
			c-0.199-0.223-0.188-0.433,0.033-0.634l25.467-22.929c0.222-0.2,0.432-0.189,0.632,0.034l1.563,1.736
			c0.2,0.223,0.189,0.434-0.033,0.633L-579.104,49.746z"/>
		<path fill="#FFFFFF" d="M-559.115,74.918c1.298,0.771,2.718,1.904,4.114,3.456c4.061,4.509,3.893,9.749-0.578,13.776
			l-10.571,9.518c-0.223,0.198-0.434,0.188-0.635-0.034l-1.03-1.145c-0.201-0.224-0.189-0.432,0-0.67l1.563-1.609
			c0.379-0.543,0.11-0.769-0.63-0.772c-2.72,0.175-5.231-0.977-7.694-3.714c-3.36-3.732-3.292-7.744-0.002-10.705
			c3.217-2.897,7.427-2.604,11.29,1.612l5.026,5.582l0.48-0.433c3.142-2.829,3.358-6.235,0.494-9.413
			c-1.163-1.293-2.343-2.307-3.47-2.964l-1.538-0.96c-0.272-0.156-0.332-0.37-0.176-0.644l1.075-1.705
			c0.156-0.271,0.371-0.333,0.646-0.177L-559.115,74.918z M-565.355,86.495c-2.532-2.809-4.989-2.938-6.911-1.206
			c-2.07,1.864-2.09,4.292,0.039,6.657c3.428,3.809,7.571,4.024,11.417,0.564l0.48-0.433L-565.355,86.495z"/>
		<path fill="#FFFFFF" d="M-548.157,121.875c-1.435-0.85-2.755-1.87-3.887-3.126c-4.859-5.397-3.974-11.55,1.719-16.674
			c5.655-5.092,11.833-5.366,16.759,0.104c1.03,1.146,1.813,2.385,2.539,3.936l0.7,1.445c0.161,0.256,0.081,0.462-0.208,0.589
			l-1.911,0.851c-0.25,0.092-0.46,0.011-0.588-0.208l-0.636-1.3c-0.595-1.405-1.351-2.466-2.083-3.279
			c-3.663-4.064-8.087-3.628-12.411,0.266c-4.398,3.96-5.193,8.357-1.664,12.274c0.832,0.923,2.014,1.866,3.345,2.675l1.227,0.769
			c0.274,0.156,0.333,0.371,0.179,0.642l-1.043,1.743c-0.153,0.274-0.369,0.333-0.643,0.176L-548.157,121.875z"/>
		<path fill="#FFFFFF" d="M-526.373,145.697c-0.089,0.347-0.341,0.438-0.605,0.145l-1.832-2.033
			c-0.167-0.186-0.191-0.363-0.181-0.574l1.354-7.043c0.54-2.893,1.072-5.648-1.057-8.014l-0.699-0.776l-7.503,6.757
			c-0.224,0.198-0.432,0.188-0.633-0.034l-1.562-1.736c-0.2-0.224-0.189-0.434,0.032-0.634l25.466-22.931
			c0.222-0.199,0.433-0.188,0.633,0.035l1.564,1.736c0.199,0.221,0.189,0.432-0.032,0.63l-15.745,14.179l0.631,0.702
			c1.863,2.068,5.117,1.816,7.94,1.684l6.681-0.458c0.21,0.009,0.386,0.054,0.552,0.24l1.83,2.033
			c0.267,0.295,0.149,0.536-0.207,0.588l-7.992,0.637c-2.617,0.214-5.15,0.154-6.66-0.63c-0.312-0.123-0.454-0.059-0.332,0.299
			c0.71,1.904,0.514,4.289,0.02,7.01L-526.373,145.697z"/>
	</g>
</g>
<rect y="47.947" fill="#80B786" width="576" height="228.514"/>
<linearGradient id="SVGID_7_" gradientUnits="userSpaceOnUse" x1="288" y1="278.666" x2="288" y2="48.4083" gradientTransform="matrix(1 0 0 -1 0 325)">
	<stop  offset="0" style="stop-color:#FFFFFF;stop-opacity:0.1"/>
	<stop  offset="0.1256" style="stop-color:#FBFBFB;stop-opacity:0.1251"/>
	<stop  offset="0.2559" style="stop-color:#EEEFF0;stop-opacity:0.1512"/>
	<stop  offset="0.3883" style="stop-color:#DADBDD;stop-opacity:0.1777"/>
	<stop  offset="0.5222" style="stop-color:#BDBEC2;stop-opacity:0.2044"/>
	<stop  offset="0.6573" style="stop-color:#979A9F;stop-opacity:0.2315"/>
	<stop  offset="0.7934" style="stop-color:#696E75;stop-opacity:0.2587"/>
	<stop  offset="0.9278" style="stop-color:#343A44;stop-opacity:0.2856"/>
	<stop  offset="1" style="stop-color:#141B27;stop-opacity:0.3"/>
</linearGradient>
<rect y="47.947" fill="url(#SVGID_7_)" width="576" height="228.514"/>
<polygon fill="#80B786" points="-1264.32,48.078 -785.622,48.078 -688.32,167.146 -785.622,276.594 -1264.32,276.594 "/>
<linearGradient id="SVGID_8_" gradientUnits="userSpaceOnUse" x1="-976.3193" y1="278.5352" x2="-976.3193" y2="48.2758" gradientTransform="matrix(1 0 0 -1 0 325)">
	<stop  offset="0" style="stop-color:#FFFFFF;stop-opacity:0.1"/>
	<stop  offset="0.1256" style="stop-color:#FBFBFB;stop-opacity:0.1251"/>
	<stop  offset="0.2559" style="stop-color:#EEEFF0;stop-opacity:0.1512"/>
	<stop  offset="0.3883" style="stop-color:#DADBDD;stop-opacity:0.1777"/>
	<stop  offset="0.5222" style="stop-color:#BDBEC2;stop-opacity:0.2044"/>
	<stop  offset="0.6573" style="stop-color:#979A9F;stop-opacity:0.2315"/>
	<stop  offset="0.7934" style="stop-color:#696E75;stop-opacity:0.2587"/>
	<stop  offset="0.9278" style="stop-color:#343A44;stop-opacity:0.2856"/>
	<stop  offset="1" style="stop-color:#141B27;stop-opacity:0.3"/>
</linearGradient>
<polygon fill="url(#SVGID_8_)" points="-1264.32,48.078 -785.622,48.078 -688.32,167.146 -785.622,276.594 -1264.32,276.594 "/>
</svg>
