<?xml version="1.0" encoding="utf-8"?>
<!-- Generator: Adobe Illustrator 16.0.0, SVG Export Plug-In . SVG Version: 6.00 Build 0)  -->
<!DOCTYPE svg PUBLIC "-//W3C//DTD SVG 1.1//EN" "http://www.w3.org/Graphics/SVG/1.1/DTD/svg11.dtd">
<svg version="1.1" id="Layer_1" xmlns="http://www.w3.org/2000/svg" xmlns:xlink="http://www.w3.org/1999/xlink" x="0px" y="0px"
	 width="576px" height="324px" viewBox="0 0 576 324" enable-background="new 0 0 576 324" xml:space="preserve">
<g>
	<polygon fill="#80B786" points="190.06,168.801 286.008,278.324 248.205,321.479 152.269,211.948 144.421,220.905 136.812,212.21 
		41.103,321.479 3.301,278.324 99.159,168.881 104.762,175.329 249.378,10.219 256.746,48.145 289.166,55.647 	"/>
	<g>
		<polygon fill="#5F6C80" points="36.68,13.409 144.425,130.043 104.634,175.473 0.278,49.811 		"/>
	</g>
	<path fill="#80B786" d="M471.325,221.706l89.412,54.04l-37.164,44.567L313.752,199.542l20.165-24.056l20.485-24.448l12.768,7.716
		h99.668c25.678,0,46.499-20.821,46.499-46.5c0-25.679-20.821-46.499-46.499-46.499h-90.041v46.499h-63.045V65.755L376.797,2.71
		h90.041c60.503,0,109.544,49.041,109.544,109.543C576.382,171.253,529.748,219.352,471.325,221.706z"/>
	<path fill="#5F6C80" d="M375.456,235.057l-3.195,84.654H318.18l-4.43-120.168L375.456,235.057z"/>
	<g>
		<linearGradient id="SVGID_1_" gradientUnits="userSpaceOnUse" x1="21.7822" y1="299.7407" x2="117.1565" y2="192.1219">
			<stop  offset="0" style="stop-color:#FFFFFF;stop-opacity:0.1"/>
			<stop  offset="0.1256" style="stop-color:#FBFBFB;stop-opacity:0.1251"/>
			<stop  offset="0.2559" style="stop-color:#EEEFF0;stop-opacity:0.1512"/>
			<stop  offset="0.3883" style="stop-color:#DADBDD;stop-opacity:0.1777"/>
			<stop  offset="0.5222" style="stop-color:#BDBEC2;stop-opacity:0.2044"/>
			<stop  offset="0.6573" style="stop-color:#979A9F;stop-opacity:0.2315"/>
			<stop  offset="0.7934" style="stop-color:#696E75;stop-opacity:0.2587"/>
			<stop  offset="0.9278" style="stop-color:#343A44;stop-opacity:0.2856"/>
			<stop  offset="1" style="stop-color:#141B27;stop-opacity:0.3"/>
		</linearGradient>
		<polygon fill="url(#SVGID_1_)" points="3.302,278.324 41.106,321.479 136.81,212.208 99.159,168.882 		"/>
	</g>
	<g>
		<linearGradient id="SVGID_2_" gradientUnits="userSpaceOnUse" x1="268.1602" y1="297.7388" x2="170.8521" y2="193.3419">
			<stop  offset="0" style="stop-color:#FFFFFF;stop-opacity:0.1"/>
			<stop  offset="0.1256" style="stop-color:#FBFBFB;stop-opacity:0.1251"/>
			<stop  offset="0.2559" style="stop-color:#EEEFF0;stop-opacity:0.1512"/>
			<stop  offset="0.3883" style="stop-color:#DADBDD;stop-opacity:0.1777"/>
			<stop  offset="0.5222" style="stop-color:#BDBEC2;stop-opacity:0.2044"/>
			<stop  offset="0.6573" style="stop-color:#979A9F;stop-opacity:0.2315"/>
			<stop  offset="0.7934" style="stop-color:#696E75;stop-opacity:0.2587"/>
			<stop  offset="0.9278" style="stop-color:#343A44;stop-opacity:0.2856"/>
			<stop  offset="1" style="stop-color:#141B27;stop-opacity:0.3"/>
		</linearGradient>
		<polygon fill="url(#SVGID_2_)" points="248.205,321.479 286.011,278.324 190.06,168.801 152.271,211.946 		"/>
	</g>
	<linearGradient id="SVGID_3_" gradientUnits="userSpaceOnUse" x1="494.0801" y1="115.1807" x2="439.3037" y2="203.4664">
		<stop  offset="0" style="stop-color:#FFFFFF;stop-opacity:0.1"/>
		<stop  offset="0.1256" style="stop-color:#FBFBFB;stop-opacity:0.1251"/>
		<stop  offset="0.2559" style="stop-color:#EEEFF0;stop-opacity:0.1512"/>
		<stop  offset="0.3883" style="stop-color:#DADBDD;stop-opacity:0.1777"/>
		<stop  offset="0.5222" style="stop-color:#BDBEC2;stop-opacity:0.2044"/>
		<stop  offset="0.6573" style="stop-color:#979A9F;stop-opacity:0.2315"/>
		<stop  offset="0.7934" style="stop-color:#696E75;stop-opacity:0.2587"/>
		<stop  offset="0.9278" style="stop-color:#343A44;stop-opacity:0.2856"/>
		<stop  offset="1" style="stop-color:#141B27;stop-opacity:0.3"/>
	</linearGradient>
	<path fill="url(#SVGID_3_)" d="M471.327,221.706c58.421-2.354,105.055-50.456,105.055-109.453h-63.045
		c0,25.679-20.819,46.498-46.499,46.498h-99.67"/>
	<linearGradient id="SVGID_4_" gradientUnits="userSpaceOnUse" x1="513.2646" y1="57.4814" x2="377.2765" y2="57.4815">
		<stop  offset="0" style="stop-color:#FFFFFF;stop-opacity:0.1"/>
		<stop  offset="0.1256" style="stop-color:#FBFBFB;stop-opacity:0.1251"/>
		<stop  offset="0.2559" style="stop-color:#EEEFF0;stop-opacity:0.1512"/>
		<stop  offset="0.3883" style="stop-color:#DADBDD;stop-opacity:0.1777"/>
		<stop  offset="0.5222" style="stop-color:#BDBEC2;stop-opacity:0.2044"/>
		<stop  offset="0.6573" style="stop-color:#979A9F;stop-opacity:0.2315"/>
		<stop  offset="0.7934" style="stop-color:#696E75;stop-opacity:0.2587"/>
		<stop  offset="0.9278" style="stop-color:#343A44;stop-opacity:0.2856"/>
		<stop  offset="1" style="stop-color:#141B27;stop-opacity:0.3"/>
	</linearGradient>
	<path fill="url(#SVGID_4_)" d="M513.337,112.253c0-25.68-20.819-46.5-46.499-46.5h-90.035l-0.008-63.044h90.043
		c60.503,0,109.544,49.042,109.544,109.544"/>
	<g>
		<linearGradient id="SVGID_5_" gradientUnits="userSpaceOnUse" x1="316.9531" y1="328.1201" x2="356.9074" y2="223.0788">
			<stop  offset="0" style="stop-color:#FFFFFF;stop-opacity:0.1"/>
			<stop  offset="0.1256" style="stop-color:#FBFBFB;stop-opacity:0.1251"/>
			<stop  offset="0.2559" style="stop-color:#EEEFF0;stop-opacity:0.1512"/>
			<stop  offset="0.3883" style="stop-color:#DADBDD;stop-opacity:0.1777"/>
			<stop  offset="0.5222" style="stop-color:#BDBEC2;stop-opacity:0.2044"/>
			<stop  offset="0.6573" style="stop-color:#979A9F;stop-opacity:0.2315"/>
			<stop  offset="0.7934" style="stop-color:#696E75;stop-opacity:0.2587"/>
			<stop  offset="0.9278" style="stop-color:#343A44;stop-opacity:0.2856"/>
			<stop  offset="1" style="stop-color:#141B27;stop-opacity:0.3"/>
		</linearGradient>
		<polygon fill="url(#SVGID_5_)" points="372.261,319.711 318.18,319.711 313.75,199.543 375.457,235.06 		"/>
	</g>
	<g>
		<linearGradient id="SVGID_6_" gradientUnits="userSpaceOnUse" x1="20.3086" y1="30.5249" x2="124.7057" y2="152.9657">
			<stop  offset="0" style="stop-color:#FFFFFF;stop-opacity:0.1"/>
			<stop  offset="0.1256" style="stop-color:#FBFBFB;stop-opacity:0.1251"/>
			<stop  offset="0.2559" style="stop-color:#EEEFF0;stop-opacity:0.1512"/>
			<stop  offset="0.3883" style="stop-color:#DADBDD;stop-opacity:0.1777"/>
			<stop  offset="0.5222" style="stop-color:#BDBEC2;stop-opacity:0.2044"/>
			<stop  offset="0.6573" style="stop-color:#979A9F;stop-opacity:0.2315"/>
			<stop  offset="0.7934" style="stop-color:#696E75;stop-opacity:0.2587"/>
			<stop  offset="0.9278" style="stop-color:#343A44;stop-opacity:0.2856"/>
			<stop  offset="1" style="stop-color:#141B27;stop-opacity:0.3"/>
		</linearGradient>
		<polygon fill="url(#SVGID_6_)" points="36.682,13.406 0.278,49.811 104.634,175.475 144.425,130.043 		"/>
	</g>
	<g>
		<path fill="#FFFFFF" d="M45.217,49.746c-1.514,1.365-2.723,2.253-4.069,3.062c-0.398,0.227-0.313,0.617,0.286,0.613
			c2.979-0.408,5.822,0.447,8.286,3.182c3.659,4.064,3.154,9.004-1.282,12.998L37.866,79.12c-0.22,0.201-0.431,0.189-0.63-0.033
			L35.67,77.35c-0.199-0.221-0.189-0.432,0.034-0.631l10.387-9.352c3.215-2.896,3.673-6.253,1.21-8.989
			c-3.827-4.249-8.698-2.673-12.655,0.887l-8.094,7.289c-0.223,0.199-0.433,0.188-0.632-0.033l-1.564-1.737
			c-0.199-0.223-0.188-0.433,0.033-0.634L49.855,41.22c0.222-0.2,0.432-0.189,0.632,0.034l1.563,1.736
			c0.2,0.223,0.189,0.434-0.033,0.633L45.217,49.746z"/>
		<path fill="#FFFFFF" d="M65.205,74.918c1.298,0.771,2.718,1.904,4.114,3.456c4.061,4.509,3.893,9.749-0.578,13.776l-10.571,9.518
			c-0.223,0.198-0.434,0.188-0.635-0.034l-1.03-1.145c-0.201-0.224-0.189-0.432,0-0.67l1.563-1.609
			c0.379-0.543,0.11-0.769-0.63-0.772c-2.72,0.175-5.231-0.977-7.694-3.714c-3.36-3.732-3.292-7.744-0.002-10.705
			c3.217-2.897,7.427-2.604,11.29,1.612l5.026,5.582l0.48-0.433c3.142-2.829,3.358-6.235,0.494-9.413
			c-1.163-1.293-2.343-2.307-3.47-2.964l-1.538-0.96c-0.272-0.156-0.332-0.37-0.176-0.644l1.075-1.705
			c0.156-0.272,0.371-0.333,0.646-0.177L65.205,74.918z M58.965,86.495c-2.532-2.809-4.989-2.938-6.911-1.206
			c-2.07,1.864-2.09,4.292,0.039,6.657c3.428,3.809,7.571,4.024,11.417,0.564l0.48-0.433L58.965,86.495z"/>
		<path fill="#FFFFFF" d="M76.164,121.875c-1.435-0.85-2.755-1.87-3.887-3.126c-4.859-5.397-3.974-11.55,1.719-16.674
			c5.655-5.092,11.833-5.366,16.759,0.104c1.03,1.146,1.813,2.385,2.539,3.936l0.7,1.445c0.161,0.256,0.081,0.462-0.208,0.589
			L91.876,109c-0.25,0.092-0.46,0.011-0.588-0.208l-0.636-1.3c-0.595-1.405-1.351-2.466-2.083-3.279
			c-3.663-4.064-8.087-3.628-12.411,0.266c-4.398,3.96-5.193,8.357-1.664,12.274c0.832,0.923,2.014,1.866,3.345,2.675l1.227,0.769
			c0.274,0.156,0.333,0.371,0.179,0.642l-1.043,1.743c-0.153,0.274-0.369,0.333-0.643,0.176L76.164,121.875z"/>
		<path fill="#FFFFFF" d="M97.948,145.697c-0.089,0.347-0.341,0.439-0.605,0.145l-1.832-2.033c-0.167-0.186-0.191-0.363-0.181-0.574
			l1.354-7.043c0.54-2.893,1.072-5.648-1.057-8.014l-0.699-0.776l-7.503,6.757c-0.224,0.198-0.432,0.188-0.633-0.034l-1.562-1.736
			c-0.2-0.224-0.189-0.434,0.032-0.634l25.466-22.931c0.222-0.199,0.433-0.188,0.633,0.035l1.564,1.736
			c0.199,0.221,0.189,0.432-0.032,0.63l-15.745,14.179l0.631,0.702c1.863,2.068,5.117,1.816,7.94,1.684l6.681-0.458
			c0.21,0.009,0.386,0.054,0.552,0.24l1.83,2.033c0.267,0.295,0.149,0.536-0.207,0.588l-7.992,0.637
			c-2.617,0.214-5.15,0.154-6.66-0.63c-0.312-0.123-0.454-0.059-0.332,0.299c0.71,1.904,0.514,4.289,0.02,7.01L97.948,145.697z"/>
	</g>
</g>
<rect x="624.32" y="47.947" fill="#80B786" width="576" height="228.514"/>
<linearGradient id="SVGID_7_" gradientUnits="userSpaceOnUse" x1="912.3203" y1="46.334" x2="912.3203" y2="276.5917">
	<stop  offset="0" style="stop-color:#FFFFFF;stop-opacity:0.1"/>
	<stop  offset="0.1256" style="stop-color:#FBFBFB;stop-opacity:0.1251"/>
	<stop  offset="0.2559" style="stop-color:#EEEFF0;stop-opacity:0.1512"/>
	<stop  offset="0.3883" style="stop-color:#DADBDD;stop-opacity:0.1777"/>
	<stop  offset="0.5222" style="stop-color:#BDBEC2;stop-opacity:0.2044"/>
	<stop  offset="0.6573" style="stop-color:#979A9F;stop-opacity:0.2315"/>
	<stop  offset="0.7934" style="stop-color:#696E75;stop-opacity:0.2587"/>
	<stop  offset="0.9278" style="stop-color:#343A44;stop-opacity:0.2856"/>
	<stop  offset="1" style="stop-color:#141B27;stop-opacity:0.3"/>
</linearGradient>
<rect x="624.32" y="47.947" fill="url(#SVGID_7_)" width="576" height="228.514"/>
<polygon fill="#80B786" points="-640,48.078 -161.302,48.078 -64,167.147 -161.302,276.594 -640,276.594 "/>
<linearGradient id="SVGID_8_" gradientUnits="userSpaceOnUse" x1="-352" y1="46.4648" x2="-352" y2="276.7241">
	<stop  offset="0" style="stop-color:#FFFFFF;stop-opacity:0.1"/>
	<stop  offset="0.1256" style="stop-color:#FBFBFB;stop-opacity:0.1251"/>
	<stop  offset="0.2559" style="stop-color:#EEEFF0;stop-opacity:0.1512"/>
	<stop  offset="0.3883" style="stop-color:#DADBDD;stop-opacity:0.1777"/>
	<stop  offset="0.5222" style="stop-color:#BDBEC2;stop-opacity:0.2044"/>
	<stop  offset="0.6573" style="stop-color:#979A9F;stop-opacity:0.2315"/>
	<stop  offset="0.7934" style="stop-color:#696E75;stop-opacity:0.2587"/>
	<stop  offset="0.9278" style="stop-color:#343A44;stop-opacity:0.2856"/>
	<stop  offset="1" style="stop-color:#141B27;stop-opacity:0.3"/>
</linearGradient>
<polygon fill="url(#SVGID_8_)" points="-640,48.078 -161.302,48.078 -64,167.147 -161.302,276.594 -640,276.594 "/>
</svg>
